<?xml version="1.0" encoding="utf-8"?>
<!-- Generator: Adobe Illustrator 17.0.2, SVG Export Plug-In . SVG Version: 6.00 Build 0)  -->
<!DOCTYPE svg PUBLIC "-//W3C//DTD SVG 1.1//EN" "http://www.w3.org/Graphics/SVG/1.1/DTD/svg11.dtd">
<svg version="1.1" id="Layer_1" xmlns="http://www.w3.org/2000/svg" xmlns:xlink="http://www.w3.org/1999/xlink" x="0px" y="0px"
	 width="56.693px" height="56.693px" viewBox="0 0 56.693 56.693" enable-background="new 0 0 56.693 56.693" xml:space="preserve">
<g fill="#0093EE">
	<path d="M52.548,9.384c-0.183-0.206-0.442-0.327-0.717-0.334L21.043,8.148c-0.559-0.042-0.991,0.396-1.027,0.933
		c-0.011,0.168-1.172,16.956-5.387,26.004c-0.233,0.5-0.017,1.096,0.484,1.329c0.5,0.233,1.095,0.017,1.329-0.484
		c3.827-8.213,5.186-21.978,5.497-25.755l28.774,0.843c-1.583,17.378-5.515,36.094-10.573,37.019
		c-2.034,0.372-4.676-2.577-7.426-8.307c-0.163-0.339-0.502-0.559-0.878-0.567L4.64,38.534c-0.295-0.008-0.598,0.126-0.793,0.362
		c-0.195,0.236-0.271,0.548-0.208,0.847c0.086,0.402,2.198,9.842,9.837,10.023c8.897,0.211,26.091,0.362,26.263,0.364
		c0.003,0,0.006,0,0.009,0c0.135,0,0.264-0.027,0.382-0.076c0.123-0.011,0.246-0.028,0.369-0.05
		c8.358-1.528,11.524-30.871,12.299-39.868C52.822,9.861,52.732,9.59,52.548,9.384z M13.523,47.767
		c-4.604-0.109-6.778-4.881-7.565-7.202l25.221,0.583c1.558,3.158,3.078,5.466,4.579,6.943
		C30.102,48.033,19.765,47.915,13.523,47.767z"/>
	<path d="M42.993,19.865c0.012,0,0.024,0,0.036,0c0.536,0,0.98-0.425,0.999-0.965c0.02-0.552-0.413-1.015-0.964-1.035L27.36,17.313
		c-0.56-0.009-1.015,0.413-1.035,0.964s0.413,1.015,0.964,1.035L42.993,19.865z"/>
	<path d="M25.171,25.381c-0.02,0.552,0.413,1.015,0.964,1.035l14.678,0.517c0.012,0,0.024,0,0.036,0c0.536,0,0.98-0.425,0.999-0.965
		c0.02-0.552-0.413-1.015-0.964-1.035l-14.678-0.517C25.636,24.403,25.191,24.829,25.171,25.381z"/>
	<path d="M23.312,32.51c-0.02,0.552,0.413,1.015,0.964,1.035l8.377,0.295c0.012,0,0.024,0,0.036,0c0.536,0,0.98-0.425,0.999-0.965
		c0.02-0.552-0.413-1.015-0.964-1.035l-8.377-0.295C23.787,31.525,23.332,31.958,23.312,32.51z"/>
</g>
</svg>
