<?xml version="1.0" encoding="UTF-8"?>
<svg width="51px" height="50px" viewBox="0 0 51 50" version="1.1" xmlns="http://www.w3.org/2000/svg" xmlns:xlink="http://www.w3.org/1999/xlink">
    <!-- Generator: Sketch 41 (35326) - http://www.bohemiancoding.com/sketch -->
    <title>thin-154_money_us_dollars_euro_cash_currency_exchange</title>
    <desc>Created with Sketch.</desc>
    <defs></defs>
    <g id="Page-1" stroke="none" stroke-width="1" fill="none" fill-rule="evenodd">
        <g id="thin-154_money_us_dollars_euro_cash_currency_exchange" fill="#0093EE">
            <g id="Group">
                <path d="M23.633,16.895 L22.622,13.48 C23.235,13.442 23.864,13.546 24.561,13.793 C24.763,13.869 24.976,13.843 25.1,13.807 C25.323,13.741 25.508,13.6 25.621,13.41 C25.739,13.212 25.767,12.977 25.701,12.751 C25.593,12.385 25.293,12.238 25.069,12.157 C24.048,11.827 23.17,11.748 22.205,11.891 L22.114,11.582 C21.998,11.194 21.537,10.947 21.149,11.058 C20.958,11.115 20.792,11.252 20.692,11.435 C20.592,11.619 20.568,11.833 20.625,12.024 L20.704,12.29 C18.796,13.053 17.82,14.719 18.321,16.411 C18.822,18.105 20.138,18.788 22.647,18.681 L23.681,22.175 C22.775,22.279 21.929,22.127 20.925,21.684 C20.752,21.611 20.545,21.598 20.357,21.656 C19.903,21.791 19.641,22.262 19.773,22.706 C19.857,22.993 20.051,23.191 20.338,23.294 C21.631,23.807 22.842,23.949 24.092,23.74 L24.369,24.676 C24.465,24.997 24.783,25.23 25.125,25.23 C25.196,25.23 25.267,25.22 25.335,25.2 C25.738,25.08 25.978,24.638 25.858,24.235 L25.592,23.336 C27.549,22.528 28.515,20.866 28.004,19.141 C27.504,17.461 26.139,16.764 23.633,16.895 Z M22.135,16.961 C20.611,16.952 20.203,16.556 19.989,15.83 C19.751,15.027 20.236,14.242 21.205,13.816 L22.135,16.961 Z M25.09,21.823 L24.136,18.599 L24.164,18.599 C25.698,18.599 26.12,19.009 26.33,19.719 C26.586,20.582 26.113,21.371 25.09,21.823 Z" id="Shape"></path>
                <path d="M45.249,23.852 C45.375,23.619 45.404,23.345 45.329,23.09 L38.872,1.267 C38.797,1.013 38.623,0.799 38.391,0.672 C38.158,0.545 37.883,0.516 37.63,0.592 L1.437,11.301 C1.183,11.376 0.969,11.549 0.842,11.782 C0.716,12.015 0.687,12.289 0.762,12.544 L5.48,28.492 L5.48,28.493 L5.48,28.494 L7.218,34.368 C7.347,34.803 7.745,35.084 8.176,35.084 C8.27,35.084 8.365,35.071 8.46,35.043 L44.652,24.335 C44.908,24.258 45.122,24.086 45.249,23.852 Z M37.009,24.51 L14.653,31.124 C13.341,28.248 10.262,26.576 7.137,27.04 L4.68,18.735 C6.08,18.098 7.236,17.037 7.983,15.662 C8.73,14.286 8.992,12.739 8.764,11.218 L31.526,4.483 C32.152,5.931 33.218,7.138 34.565,7.869 C35.519,8.387 36.556,8.648 37.602,8.648 C38.044,8.648 38.485,8.584 38.924,8.489 L41.338,16.648 C38.296,17.818 36.486,21.154 37.009,24.51 Z M38.352,6.562 C37.388,6.733 36.402,6.592 35.518,6.112 C34.618,5.624 33.91,4.858 33.456,3.912 L37.237,2.793 L38.352,6.562 Z M6.826,11.792 C6.92,12.795 6.717,13.803 6.225,14.708 C5.733,15.613 4.998,16.332 4.106,16.798 L2.963,12.935 L6.826,11.792 Z M7.71,28.98 C9.766,28.79 11.752,29.87 12.712,31.699 L8.852,32.841 L7.71,28.98 Z M38.956,23.934 C38.709,21.643 39.911,19.444 41.912,18.592 L43.127,22.7 L38.956,23.934 Z" id="Shape"></path>
                <path d="M24.795,38.228 C24.795,38.647 25.136,38.988 25.555,38.988 L26.412,38.988 C27.082,41.52 28.925,43.084 31.263,43.084 C32.841,43.084 34.081,42.388 35.172,40.884 C35.287,40.711 35.346,40.543 35.346,40.383 C35.346,39.92 34.976,39.558 34.504,39.558 C34.233,39.558 34.005,39.672 33.841,39.891 C33.071,40.946 32.292,41.416 31.313,41.416 C29.923,41.416 28.808,40.516 28.28,38.988 L31.773,38.988 C32.194,38.988 32.549,38.64 32.549,38.228 C32.549,37.8 32.201,37.452 31.773,37.452 L27.97,37.452 C27.959,37.265 27.959,37.068 27.959,36.863 C27.959,36.635 27.968,36.406 27.986,36.175 L31.772,36.175 C32.193,36.175 32.548,35.827 32.548,35.415 C32.548,35.003 32.193,34.654 31.772,34.654 L28.334,34.654 C28.857,33.218 29.907,32.342 31.13,32.342 C32.237,32.342 32.975,32.747 33.769,33.8 C33.871,33.919 34.095,34.118 34.453,34.118 C34.918,34.118 35.311,33.724 35.311,33.26 C35.311,33.053 35.232,32.844 35.094,32.679 C34.017,31.292 32.81,30.674 31.179,30.674 C29.026,30.674 27.193,32.23 26.467,34.654 L25.553,34.654 C25.134,34.654 24.793,34.995 24.793,35.415 C24.793,35.834 25.134,36.175 25.553,36.175 L26.184,36.175 C26.167,36.41 26.158,36.652 26.158,36.896 C26.158,37.084 26.165,37.265 26.176,37.452 L25.553,37.452 C25.135,37.452 24.795,37.8 24.795,38.228 Z" id="Shape"></path>
                <path d="M49.318,24.375 L47.682,24.375 C47.13,24.375 46.682,24.822 46.682,25.375 C46.682,25.928 47.13,26.375 47.682,26.375 L48.318,26.375 L48.318,30.451 C46.78,30.213 45.419,29.133 44.745,27.562 C44.526,27.053 43.936,26.821 43.432,27.038 C42.924,27.256 42.69,27.845 42.908,28.351 C43.901,30.662 45.983,32.208 48.319,32.452 L48.319,41.042 C45.258,41.357 42.802,43.9 42.375,47.134 L18.622,47.134 C18.18,44.005 15.703,41.528 12.574,41.086 L12.574,37.015 C12.574,36.462 12.126,36.015 11.574,36.015 C11.022,36.015 10.574,36.462 10.574,37.015 L10.574,48.134 C10.574,48.687 11.022,49.134 11.574,49.134 L49.318,49.134 C49.87,49.134 50.318,48.687 50.318,48.134 L50.318,25.375 C50.318,24.822 49.87,24.375 49.318,24.375 Z M12.574,43.107 C14.599,43.51 16.197,45.107 16.599,47.133 L12.574,47.133 L12.574,43.107 Z M44.393,47.133 C44.776,45.012 46.355,43.379 48.318,43.077 L48.318,47.133 L44.393,47.133 Z" id="Shape"></path>
            </g>
        </g>
    </g>
</svg>