<?xml version="1.0" encoding="UTF-8"?>
<svg width="42px" height="50px" viewBox="0 0 42 50" version="1.1" xmlns="http://www.w3.org/2000/svg" xmlns:xlink="http://www.w3.org/1999/xlink">
    <!-- Generator: Sketch 41 (35326) - http://www.bohemiancoding.com/sketch -->
    <title>thin-088_file_document_writing</title>
    <desc>Created with Sketch.</desc>
    <defs></defs>
    <g id="Page-1" stroke="none" stroke-width="1" fill="none" fill-rule="evenodd">
        <g id="thin-088_file_document_writing" fill="#FFFFFF">
            <g id="Group">
                <path d="M32.028,25.774 L10.212,25.774 C9.659,25.774 9.212,26.221 9.212,26.774 C9.212,27.327 9.659,27.774 10.212,27.774 L32.027,27.774 C32.58,27.774 33.027,27.327 33.027,26.774 C33.027,26.221 32.581,25.774 32.028,25.774 Z" id="Shape"></path>
                <path d="M32.028,31.975 L10.212,31.975 C9.659,31.975 9.212,32.422 9.212,32.975 C9.212,33.528 9.659,33.975 10.212,33.975 L32.027,33.975 C32.58,33.975 33.027,33.528 33.027,32.975 C33.027,32.422 32.581,31.975 32.028,31.975 Z" id="Shape"></path>
                <path d="M32.028,19.572 L10.212,19.572 C9.659,19.572 9.212,20.019 9.212,20.572 C9.212,21.125 9.659,21.572 10.212,21.572 L32.027,21.572 C32.58,21.572 33.027,21.125 33.027,20.572 C33.027,20.019 32.581,19.572 32.028,19.572 Z" id="Shape"></path>
                <path d="M10.212,15.371 L20.658,15.371 C21.211,15.371 21.658,14.924 21.658,14.371 C21.658,13.818 21.211,13.371 20.658,13.371 L10.212,13.371 C9.659,13.371 9.212,13.818 9.212,14.371 C9.212,14.924 9.66,15.371 10.212,15.371 Z" id="Shape"></path>
                <path d="M40.885,7.963 L33.684,0.865 C33.173,0.359 32.496,0.081 31.775,0.081 L31.774,0.081 L3.263,0.081 C1.764,0.082 0.545,1.3 0.545,2.8 L0.577,43.362 C0.577,43.633 0.687,43.892 0.883,44.081 L6.414,49.415 C6.803,49.788 7.414,49.788 7.803,49.415 L14.021,43.418 L20.452,49.618 C20.841,49.991 21.452,49.991 21.841,49.618 L28.272,43.418 L34.703,49.618 C34.897,49.805 35.147,49.898 35.397,49.898 C35.647,49.898 35.897,49.804 36.091,49.618 L41.392,44.508 C41.587,44.32 41.698,44.06 41.698,43.788 L41.698,9.898 C41.696,9.176 41.4,8.47 40.885,7.963 Z M38.985,8.899 L32.783,8.899 L32.777,2.779 L38.985,8.899 Z M35.395,47.51 L28.964,41.31 C28.77,41.123 28.52,41.03 28.27,41.03 C28.02,41.03 27.77,41.124 27.576,41.31 L21.145,47.51 L14.714,41.31 C14.325,40.937 13.712,40.937 13.325,41.31 L7.107,47.306 L2.576,42.937 L2.545,2.799 C2.545,2.403 2.867,2.081 3.264,2.081 L30.777,2.081 L30.785,9.899 C30.786,10.451 31.233,10.898 31.785,10.898 L39.697,10.898 L39.697,43.363 L35.395,47.51 Z" id="Shape"></path>
            </g>
        </g>
    </g>
</svg>