<svg version="1.1" id="Layer_1" xmlns="http://www.w3.org/2000/svg" xmlns:xlink="http://www.w3.org/1999/xlink" x="0px" y="0px"
	 width="56.693px" height="56.693px" viewBox="0 0 56.693 56.693" enable-background="new 0 0 56.693 56.693" xml:space="preserve">
<g fill="#0093EE">
	<path d="M52.987,46.676c-5.931-5.758-14.227-9.085-17.162-9.085c-0.023,0-0.088,0.005-0.111,0.006
		c-0.551,0.038-0.98,0.515-0.942,1.066c0.039,0.551,0.495,0.986,1.053,0.928l0.514-0.003c1,0.548,7.955,1.436,15.254,8.523
		l0.001,3.565H34.192c-0.552,0-1,0.447-1,1s0.448,1,1,1h17.402c1.102,0,1.999-0.896,1.999-1.998v-3.567
		C53.593,47.574,53.372,47.05,52.987,46.676z"/>
	<path d="M23.334,51.677L6.056,51.679l0-3.567c5.795-5.63,13.555-8.517,15.824-8.517c0.552,0,1-0.447,1-1
		c0-0.529-0.412-0.963-0.933-0.998c-0.041-0.004-0.09-0.007-0.124-0.007c-2.448,0-10.671,2.783-17.163,9.089
		c-0.39,0.38-0.604,0.889-0.604,1.433v3.567c0,1.102,0.896,1.998,1.998,1.998h17.28c0.552,0,1-0.447,1-1
		S23.886,51.677,23.334,51.677z"/>
	<path d="M18.547,25.126c0.37,2.637,1.62,5.259,3.445,7.205v2.76c0,0.264,0.062,0.526,0.181,0.758
		c0.177,0.347,0.527,0.546,0.892,0.546c0.153,0,0.308-0.035,0.454-0.109c0.465-0.237,0.665-0.788,0.474-1.263v-3.097
		c0-0.267-0.106-0.521-0.295-0.709c-1.838-1.827-3.048-4.448-3.239-7.014c-0.039-0.521-0.506-0.926-1.029-0.926
		c-0.461,0-0.836-0.425-0.836-0.947c0-0.383,0.203-0.726,0.516-0.873c0.454-0.215,0.678-0.732,0.525-1.211
		c-0.351-1.089-0.528-2.223-0.528-3.367c0-5.718,4.36-10.369,9.719-10.369c5.359,0,9.718,4.651,9.718,10.369
		c0,1.149-0.177,2.282-0.526,3.367c-0.154,0.479,0.07,0.996,0.524,1.211c0.313,0.147,0.515,0.49,0.515,0.873
		c0,0.522-0.375,0.947-0.869,0.947c-0.523,0-0.958,0.404-0.997,0.926c-0.193,2.61-1.43,5.26-3.309,7.089
		c-0.194,0.188-0.303,0.447-0.303,0.717v3.014c-0.189,0.48,0.02,1.033,0.491,1.265c0.496,0.245,1.095,0.037,1.337-0.459
		c0.114-0.231,0.171-0.479,0.171-0.737v-2.671c1.868-1.954,3.146-4.606,3.522-7.288c1.134-0.386,1.956-1.496,1.956-2.802
		c0-0.842-0.348-1.631-0.929-2.181c0.276-1.064,0.417-2.161,0.417-3.271c0-6.82-5.257-12.369-11.718-12.369
		c-6.462,0-11.719,5.549-11.719,12.369c0,1.106,0.14,2.203,0.418,3.271c-0.582,0.55-0.93,1.339-0.93,2.181
		C16.593,23.628,17.406,24.734,18.547,25.126z"/>
	<path d="M32.164,45.265c1.772-3.204,2.033-5.226,0.801-6.178c-2.138-1.663-6.29-1.542-8.279-0.002
		c-1.241,0.96-0.971,2.997,0.826,6.229c0.178,0.32,0.515,0.514,0.874,0.514c0.055,0,0.109-0.004,0.164-0.014
		c1.509-0.251,3.09-0.266,4.593-0.044C31.549,45.825,31.962,45.629,32.164,45.265z M26.936,43.739
		c-1.039-2.016-1.074-2.938-1.027-3.071c1.112-0.858,2.018-0.684,3.018-0.768v0.002c1.375,0,1.792,0.183,2.772,0.723
		c0.082,0.171,0.052,1.086-0.97,3.079C29.477,43.575,28.193,43.586,26.936,43.739z"/>
	<path d="M31.723,47.644c-0.053-0.548-0.53-0.973-1.091-0.899c-0.549,0.053-0.953,0.541-0.9,1.091l0.569,5
		c0.059,0.51,0.491,0.886,0.992,0.886c0.039,0,0.077-0.002,0.116-0.007c0.549-0.063,0.942-0.56,0.878-1.107l-0.521-4.51
		L31.723,47.644z"/>
	<path d="M27.028,46.788c-0.542-0.062-1.043,0.332-1.106,0.88l-0.562,4.94c-0.062,0.549,0.332,1.045,0.881,1.106
		c0.038,0.005,0.076,0.007,0.114,0.007c0.501,0,0.934-0.377,0.992-0.887l0.562-4.94C27.972,47.345,27.577,46.849,27.028,46.788z"/>
</g>
</svg>
