<?xml version="1.0" encoding="UTF-8"?>
<svg width="56px" height="57px" viewBox="0 0 56 57" version="1.1" xmlns="http://www.w3.org/2000/svg" xmlns:xlink="http://www.w3.org/1999/xlink">
    <!-- Generator: Sketch 41 (35326) - http://www.bohemiancoding.com/sketch -->
    <title>Group</title>
    <desc>Created with Sketch.</desc>
    <defs></defs>
    <g id="Page-1" stroke="none" stroke-width="1" fill="none" fill-rule="evenodd" opacity="0.900000036">
        <g id="Home-Screen" transform="translate(-965.000000, -508.000000)" fill="#FFFFFF">
            <g id="Place-Order" transform="translate(248.000000, 0.000000)">
                <g id="Item-Pic" transform="translate(100.489192, 190.000000)">
                    <g id="thin-052_settings_eq_control_panel_preferences" transform="translate(644.372545, 346.928800) rotate(90.000000) translate(-644.372545, -346.928800) translate(616.372545, 318.928800)">
                        <g id="Group" transform="translate(0.000000, -0.000000)">
                            <path d="M48.9925373,0.075407779 L6.6693398,0.075407779 C2.99231235,0.075407779 0.00175399317,3.06686325 0.00175399317,6.74499372 L0.00175399317,49.1760701 C0.00175399317,52.8542005 2.99344514,55.8467891 6.6693398,55.8467891 L48.9925373,55.8467891 C52.6695648,55.8467891 55.6601231,52.8542005 55.6601231,49.1760701 L55.6601231,6.7438606 C55.6601231,3.06686325 52.668432,0.075407779 48.9925373,0.075407779 Z M53.3945486,49.1760701 C53.3945486,51.6043614 51.4201004,53.580535 48.9925373,53.580535 L6.6693398,53.580535 C4.2417767,53.580535 2.26732851,51.6043614 2.26732851,49.1760701 L2.26732851,6.7438606 C2.26732851,4.31556928 4.2417767,2.3405288 6.6693398,2.3405288 L48.9925373,2.3405288 C51.4201004,2.3405288 53.3945486,4.31556928 53.3945486,6.7438606 L53.3945486,49.1760701 L53.3945486,49.1760701 Z" id="Shape"></path>
                            <path d="M15.554923,11.1755206 L15.554923,9.42257299 C15.554923,8.79708685 15.0474344,8.28944592 14.4221358,8.28944592 C13.7968372,8.28944592 13.2893485,8.79708685 13.2893485,9.42257299 L13.2893485,11.1755206 C10.5672608,11.7069572 8.50332237,14.1046541 8.50332237,16.9816637 C8.50332237,19.8586733 10.566128,22.2575033 13.2893485,22.7878068 L13.2893485,46.7137849 C13.2893485,47.3392711 13.7968372,47.846912 14.4221358,47.846912 C15.0474344,47.846912 15.554923,47.3392711 15.554923,46.7137849 L15.554923,22.7878068 C18.2781436,22.2575033 20.3409492,19.8586733 20.3409492,16.9816637 C20.3409492,14.1046541 18.2781436,11.7069572 15.554923,11.1755206 Z M14.4221358,20.6371316 C12.40804,20.6371316 10.7688969,18.9974968 10.7688969,16.9827968 C10.7688969,14.9680969 12.40804,13.328462 14.4221358,13.328462 C16.4362315,13.328462 18.0753747,14.9680969 18.0753747,16.9827968 C18.0753747,18.9974968 16.4362315,20.6371316 14.4221358,20.6371316 Z" id="Shape"></path>
                            <path d="M29.1721587,31.4777583 L29.1721587,9.42370612 C29.1721587,8.79821998 28.66467,8.29057905 28.0393714,8.29057905 C27.4140729,8.29057905 26.9065842,8.79821998 26.9065842,9.42370612 L26.9065842,31.4788914 C24.1833636,32.0091949 22.120558,34.4080249 22.120558,37.2850346 C22.120558,40.1620442 24.1833636,42.5608742 26.9065842,43.0911777 L26.9065842,46.7149181 C26.9065842,47.3404042 27.4140729,47.8480451 28.0393714,47.8480451 C28.66467,47.8480451 29.1721587,47.3404042 29.1721587,46.7149181 L29.1721587,43.0911777 C31.8942465,42.5597411 33.9581848,40.1620442 33.9581848,37.2850346 C33.9581848,34.4080249 31.8953792,32.0091949 29.1721587,31.4777583 Z M28.0393714,40.9393694 C26.0252757,40.9393694 24.3861325,39.2997345 24.3861325,37.2850346 C24.3861325,35.2703346 26.0252757,33.6306998 28.0393714,33.6306998 C30.0534672,33.6306998 31.6926103,35.2703346 31.6926103,37.2850346 C31.6926103,39.2997345 30.0534672,40.9393694 28.0393714,40.9393694 Z" id="Shape"></path>
                            <path d="M42.7893943,16.9771312 L42.7893943,9.42370612 C42.7893943,8.79821998 42.2819056,8.29057905 41.6566071,8.29057905 C41.0313085,8.29057905 40.5238198,8.79821998 40.5238198,9.42370612 L40.5238198,16.9771312 C37.8005992,17.5074347 35.7377936,19.9062647 35.7377936,22.7832743 C35.7377936,25.6602839 37.8005992,28.0591139 40.5238198,28.5894174 L40.5238198,46.7149181 C40.5238198,47.3404042 41.0313085,47.8480451 41.6566071,47.8480451 C42.2819056,47.8480451 42.7893943,47.3404042 42.7893943,46.7149181 L42.7893943,28.5894174 C45.5126149,28.0591139 47.5754205,25.6602839 47.5754205,22.7832743 C47.5754205,19.9062647 45.5114821,17.5074347 42.7893943,16.9771312 Z M42.7893943,26.2393119 C42.4303008,26.3571571 42.0542154,26.4376091 41.6566071,26.4376091 L41.6566071,26.4376091 C41.2589987,26.4376091 40.8829134,26.3582902 40.5238198,26.2393119 C39.0659226,25.758866 38.0033681,24.4002466 38.0033681,22.7832743 C38.0033681,21.166302 39.0659226,19.8065495 40.5238198,19.3272367 C40.8829134,19.2093915 41.2589987,19.1289395 41.6566071,19.1289395 L41.6566071,19.1289395 C42.0542154,19.1289395 42.4303008,19.2082584 42.7893943,19.3272367 C44.2472915,19.8076826 45.309846,21.166302 45.309846,22.7832743 C45.309846,24.4002466 44.2472915,25.758866 42.7893943,26.2393119 Z" id="Shape"></path>
                        </g>
                    </g>
                </g>
            </g>
        </g>
    </g>
</svg>