<?xml version="1.0" encoding="utf-8"?>
<!-- Generator: Adobe Illustrator 17.0.2, SVG Export Plug-In . SVG Version: 6.00 Build 0)  -->
<!DOCTYPE svg PUBLIC "-//W3C//DTD SVG 1.1//EN" "http://www.w3.org/Graphics/SVG/1.1/DTD/svg11.dtd">
<svg version="1.1" id="Layer_1" xmlns="http://www.w3.org/2000/svg" xmlns:xlink="http://www.w3.org/1999/xlink" x="0px" y="0px"
	 width="56.693px" height="56.693px" viewBox="0 0 56.693 56.693" enable-background="new 0 0 56.693 56.693" xml:space="preserve">
<g class="currentLayer"><title>Layer 1</title><g id="svg_1" class="selected" fill="#ffffff" fill-opacity="1">
	<path d="M52.034,13.504l-8.109-8.107c-0.493-0.491-1.146-0.762-1.842-0.762c-0.697,0.001-1.35,0.273-1.836,0.764L10.042,35.603
		c-0.243,0.243-0.44,0.542-0.571,0.865L3.985,50.061c-0.396,0.969-0.172,2.075,0.569,2.815c0.483,0.484,1.153,0.762,1.835,0.762
		c0.001,0,0.005,0,0.006,0c0.333,0,0.659-0.063,0.971-0.189l13.604-5.489c0.332-0.137,0.624-0.333,0.854-0.572l30.065-30.063
		l0.147-0.146c0.482-0.487,0.759-1.156,0.758-1.835C52.796,14.667,52.521,13.999,52.034,13.504z M11.014,37.989l8.43,8.43
		l-9.835,3.968l-2.564-2.564L11.014,37.989z M50.624,15.764L21.119,45.266l-2.354-2.354c0.076-0.043,0.154-0.081,0.219-0.145
		L45.1,16.65c0.391-0.391,0.391-1.023,0-1.414s-1.023-0.391-1.414,0L17.569,41.353c-0.065,0.065-0.102,0.143-0.145,0.219
		l-5.261-5.261l29.501-29.5c0.15-0.151,0.33-0.174,0.421-0.174c0.161,0,0.312,0.063,0.427,0.177l8.103,8.101
		c0.115,0.118,0.182,0.274,0.182,0.431S50.731,15.656,50.624,15.764z"/>
	</g></g>
</svg>
