<?xml version="1.0" encoding="UTF-8"?>
<svg width="120px" height="292px" viewBox="0 0 120 292" version="1.1" xmlns="http://www.w3.org/2000/svg" xmlns:xlink="http://www.w3.org/1999/xlink">
    <!-- Generator: Sketch 41 (35326) - http://www.bohemiancoding.com/sketch -->
    <title>Group</title>
    <desc>Created with Sketch.</desc>
    <defs>
        <linearGradient x1="50%" y1="0%" x2="50%" y2="100%" id="linearGradient-1">
            <stop stop-color="#B4ED50" offset="0%"></stop>
            <stop stop-color="#429321" offset="100%"></stop>
        </linearGradient>
    </defs>
    <g id="Page-1" stroke="none" stroke-width="1" fill="none" fill-rule="evenodd">
        <g id="Group" transform="translate(60.000000, 145.500000) rotate(90.000000) translate(-60.000000, -145.500000) translate(-86.500000, 85.500000)" fill="url(#linearGradient-1)">
            <path d="M278.483,119.072 C278.483,119.072 277.688,118.25 276.196,116.703 C274.638,115.12 272.302,112.785 269.239,109.875 C263.124,104.053 254.134,95.897 242.759,86.803 C236.331,81.67 229.142,76.227 221.291,70.778 C221.115,70.929 220.94,71.08 220.765,71.23 C218.98,72.601 217.175,73.985 215.35,75.391 C215.267,75.454 215.184,75.517 215.101,75.58 C213.088,74.041 210.96,72.45 208.721,70.821 C206.573,69.261 204.324,67.665 201.979,66.048 C203.152,65.063 204.318,64.084 205.473,63.115 C206.09,62.595 206.705,62.077 207.318,61.562 C205.583,60.478 203.824,59.4 202.041,58.332 C200.953,57.679 199.855,57.028 198.749,56.383 C199.722,55.448 200.678,54.53 201.617,53.629 C202.664,52.625 203.685,51.643 204.685,50.68 C205.7,49.729 206.58,48.709 207.498,47.76 C208.282,46.928 209.048,46.116 209.796,45.322 C213.021,47.064 216.171,48.834 219.246,50.621 C220.788,49.172 222.299,47.738 223.746,46.287 C226.445,43.451 229.051,40.709 231.553,38.074 C232.803,36.762 234.026,35.477 235.224,34.217 C236.432,32.979 237.487,31.627 238.585,30.387 C240.747,27.873 242.798,25.487 244.724,23.246 C246.626,20.984 248.499,18.958 250.068,16.927 C251.647,14.906 253.099,13.052 254.407,11.375 C259.642,4.68 262.634,0.856 262.634,0.856 L265.062,2.772 L278.081,13.052 C278.081,13.052 274.794,16.887 269.04,23.598 C267.603,25.272 266.011,27.126 264.278,29.147 C262.555,31.173 260.499,33.217 258.407,35.48 C256.294,37.723 254.046,40.111 251.675,42.627 C250.47,43.873 249.315,45.213 247.984,46.46 C246.671,47.721 245.329,49.014 243.956,50.332 C241.214,52.963 238.356,55.707 235.399,58.547 C234.968,58.941 234.531,59.335 234.09,59.728 C241.017,64.199 247.433,68.648 253.278,72.894 C265.55,81.82 275.3,89.889 282.013,95.721 C285.37,98.633 287.968,100.997 289.739,102.643 C291.513,104.287 292.464,105.22 292.519,105.271 L280.69,116.905 L278.483,119.072 M105.728,118.272 C100.53,118.272 95.401,117.998 90.39,117.401 C80.761,116.145 71.603,114.051 63.219,111.201 C54.864,108.275 47.266,104.801 40.519,101.136 C33.827,97.371 27.979,93.475 22.989,89.773 C18.028,86.029 13.934,82.476 10.666,79.431 C9.622,78.428 8.636,77.477 7.705,76.583 C6.786,75.623 5.925,74.719 5.124,73.881 C3.565,72.197 2.311,70.754 1.283,69.574 C1.184,69.424 0.969,69.28 0.976,69.139 C1.101,69 1.224,68.863 1.341,68.733 C1.577,68.468 1.798,68.224 2.003,67.998 C2.411,67.545 2.751,67.165 3.028,66.858 C3.579,66.244 3.864,65.93 3.864,65.93 C3.864,65.93 4.952,64.651 6.989,62.258 C7.499,61.652 8.069,60.977 8.754,60.276 C9.339,59.658 9.98,58.984 10.673,58.256 C11.885,57.031 13.188,55.531 14.821,54.019 C18.016,50.932 21.98,47.238 26.89,43.406 C31.728,39.49 37.591,35.537 44.296,31.734 C51.015,27.951 58.681,24.455 67.144,21.742 C75.598,19.021 84.835,17.094 94.485,16.182 C98.767,15.767 103.12,15.567 107.517,15.567 C122.974,15.567 138.974,18.041 154.289,22.353 C169.317,26.523 183.757,32.323 197.172,38.838 C196.459,39.666 195.755,40.541 194.964,41.352 C194.052,42.31 193.119,43.291 192.166,44.292 C190.476,46.071 188.721,47.917 186.912,49.82 C175.479,43.825 163.311,38.445 150.719,34.326 C134.531,28.962 117.584,25.853 101.429,25.853 C99.347,25.853 97.277,25.905 95.226,26.01 C86.246,26.452 77.613,27.844 69.638,30.017 C61.657,32.18 54.346,35.117 47.868,38.387 C41.402,41.679 35.673,45.165 30.898,48.693 C26.054,52.129 22.093,55.498 18.885,58.332 C17.247,59.713 15.929,61.104 14.702,62.232 C14.144,62.764 13.626,63.254 13.152,63.705 C12.706,64.113 12.331,64.504 11.992,64.858 C10.618,66.284 9.886,67.041 9.886,67.041 C9.886,67.041 9.72,67.238 9.399,67.615 C9.239,67.805 9.042,68.037 8.808,68.316 C8.689,68.452 8.563,68.602 8.429,68.759 L8.22,69.005 L8.429,69.269 C9.12,69.99 9.988,70.846 11.017,71.812 C11.53,72.284 12.084,72.793 12.674,73.332 C13.292,73.87 13.95,74.439 14.642,75.041 C17.897,77.805 21.97,81.031 26.873,84.392 C31.802,87.715 37.546,91.176 44.05,94.457 C50.605,97.639 57.92,100.586 65.86,102.977 C73.828,105.283 82.436,106.832 91.38,107.595 C94.106,107.795 96.86,107.889 99.635,107.889 C105.99,107.889 112.455,107.394 118.929,106.533 C121.235,106.09 123.551,105.645 125.875,105.196 L129.356,104.522 L132.791,103.566 C135.08,102.932 137.371,102.292 139.666,101.654 C141.924,100.887 144.158,100.027 146.403,99.223 C162.803,93.16 178.066,84.23 191.461,74.306 C194.733,76.726 197.82,79.112 200.705,81.416 C201.766,82.264 202.798,83.101 203.804,83.926 C188.211,94.865 170.061,104.792 150.436,111.047 C147.967,111.812 145.514,112.622 143.035,113.338 C140.515,113.92 137.996,114.499 135.482,115.078 L131.718,115.935 L127.898,116.504 C125.353,116.873 122.825,117.27 120.299,117.606 C115.407,118.037 110.538,118.272 105.728,118.272" id="Fill-17"></path>
            <path d="M227.924,106.004 C227.924,106.004 227.317,105.377 226.182,104.2 C224.994,102.992 223.214,101.212 220.881,98.994 C216.793,95.105 211.014,89.842 203.804,83.926 C203.879,83.873 203.954,83.821 204.029,83.768 C205.023,83.099 206.016,82.431 207.002,81.767 C207.941,81.049 208.88,80.334 209.812,79.623 C211.591,78.262 213.356,76.913 215.101,75.58 C221.494,80.468 226.723,84.832 230.612,88.213 C233.17,90.431 235.149,92.231 236.499,93.484 C237.85,94.737 238.575,95.447 238.618,95.49 L227.924,106.004 M96.292,105.394 C92.334,105.394 88.429,105.185 84.613,104.729 C77.278,103.773 70.3,102.177 63.912,100.006 C57.546,97.778 51.759,95.128 46.617,92.336 C41.518,89.472 37.063,86.499 33.263,83.679 C29.481,80.826 26.363,78.119 23.873,75.802 C23.077,75.037 22.325,74.31 21.616,73.631 C20.916,72.9 20.261,72.211 19.65,71.571 C18.463,70.289 17.506,69.188 16.724,68.289 C16.647,68.177 16.483,68.066 16.489,67.959 C16.585,67.851 16.678,67.75 16.768,67.651 C16.948,67.447 17.116,67.262 17.271,67.089 C17.582,66.742 17.841,66.455 18.053,66.221 C18.474,65.755 18.689,65.514 18.689,65.514 C18.689,65.514 19.518,64.541 21.071,62.717 C21.46,62.256 21.894,61.738 22.415,61.207 C22.862,60.734 23.35,60.221 23.877,59.666 C24.801,58.733 25.793,57.592 27.038,56.44 C29.472,54.088 32.491,51.273 36.233,48.352 C39.919,45.369 44.387,42.357 49.495,39.459 C54.614,36.578 60.454,33.914 66.903,31.847 C73.345,29.774 80.382,28.305 87.735,27.611 C90.996,27.295 94.312,27.143 97.662,27.143 C109.439,27.143 121.63,29.027 133.3,32.312 C148.34,36.486 162.605,42.801 175.347,49.682 C177.888,51.051 180.371,52.444 182.79,53.85 C183.966,52.746 185.117,51.654 186.219,50.549 C186.451,50.305 186.681,50.062 186.912,49.82 C190.954,51.94 194.905,54.137 198.749,56.383 C197.556,57.528 196.338,58.698 195.098,59.889 C194.769,60.189 194.436,60.489 194.1,60.788 C196.833,62.553 199.461,64.312 201.979,66.048 C201.462,66.482 200.944,66.917 200.424,67.353 C199.573,68.069 198.719,68.787 197.86,69.508 C196.963,70.172 196.06,70.838 195.156,71.508 C193.942,72.448 192.709,73.382 191.461,74.306 C189.179,72.618 186.807,70.913 184.349,69.208 C184.215,69.323 184.081,69.437 183.947,69.553 C182.588,70.596 181.211,71.652 179.822,72.722 C178.431,73.786 177.021,74.861 175.601,75.945 C174.893,76.488 174.178,77.033 173.461,77.582 C172.709,78.088 171.955,78.596 171.195,79.105 C159.277,87.487 145.389,95.1 130.363,99.889 C128.482,100.471 126.613,101.089 124.725,101.634 C122.805,102.077 120.886,102.518 118.969,102.961 L116.101,103.613 L113.191,104.045 C111.252,104.328 109.327,104.63 107.402,104.885 C103.673,105.215 99.96,105.394 96.292,105.394 M93.032,34.98 C91.443,34.98 89.864,35.019 88.298,35.1 C81.457,35.436 74.88,36.496 68.804,38.15 C62.722,39.799 57.151,42.038 52.216,44.527 C47.291,47.037 42.925,49.694 39.287,52.381 C35.597,55 32.579,57.566 30.134,59.727 C28.886,60.777 27.882,61.836 26.948,62.695 C26.522,63.102 26.128,63.477 25.767,63.82 C25.427,64.129 25.14,64.428 24.884,64.698 C23.837,65.783 23.278,66.363 23.278,66.363 C23.278,66.363 23.151,66.512 22.908,66.798 C22.785,66.941 22.636,67.12 22.456,67.33 C22.367,67.436 22.271,67.551 22.168,67.671 L22.008,67.857 L22.168,68.059 C22.694,68.606 23.356,69.26 24.139,69.996 C24.53,70.356 24.952,70.742 25.402,71.154 C25.873,71.564 26.375,71.996 26.901,72.457 C29.383,74.562 32.485,77.02 36.22,79.582 C39.976,82.113 44.353,84.748 49.308,87.248 C54.302,89.674 59.876,91.92 65.925,93.738 C71.996,95.498 78.554,96.678 85.368,97.26 C87.444,97.412 89.541,97.483 91.655,97.483 C96.498,97.483 101.424,97.106 106.358,96.449 C108.116,96.113 109.881,95.773 111.65,95.432 L114.303,94.918 L116.92,94.189 C118.662,93.705 120.41,93.22 122.156,92.732 C123.878,92.148 125.58,91.492 127.291,90.879 C140.949,85.83 153.573,78.169 164.435,69.763 C165.125,69.254 165.813,68.746 166.496,68.24 C167.15,67.691 167.801,67.145 168.449,66.599 C169.745,65.511 171.028,64.434 172.295,63.369 C172.766,62.973 173.236,62.578 173.703,62.185 C172.381,61.358 171.041,60.537 169.682,59.723 C157.822,52.603 144.541,46.001 130.578,41.435 C118.248,37.35 105.339,34.98 93.032,34.98 M209.796,45.322 C209.69,45.264 209.583,45.207 209.476,45.149 C205.485,42.994 201.379,40.881 197.172,38.838 C197.29,38.702 197.407,38.567 197.525,38.434 C199.172,36.518 200.734,34.701 202.202,32.992 C203.652,31.269 205.078,29.727 206.274,28.18 C207.478,26.639 208.582,25.226 209.58,23.949 C213.568,18.848 215.848,15.933 215.848,15.933 L227.617,25.229 C227.617,25.229 225.111,28.149 220.729,33.262 C219.633,34.536 218.42,35.949 217.1,37.487 C215.787,39.034 214.221,40.591 212.629,42.313 C211.717,43.282 210.772,44.286 209.796,45.322" id="Fill-18"></path>
            <path d="M203.804,83.926 C202.798,83.101 201.766,82.264 200.705,81.416 C197.82,79.112 194.733,76.726 191.461,74.306 C192.709,73.382 193.942,72.448 195.156,71.508 C196.06,70.838 196.963,70.172 197.86,69.508 C198.719,68.787 199.573,68.069 200.424,67.353 C200.944,66.917 201.462,66.482 201.979,66.048 C204.324,67.665 206.573,69.261 208.721,70.821 C210.96,72.45 213.088,74.041 215.101,75.58 C213.356,76.913 211.591,78.262 209.812,79.623 C208.88,80.334 207.941,81.049 207.002,81.767 C206.016,82.431 205.023,83.099 204.029,83.768 C203.954,83.821 203.879,83.873 203.804,83.926 M198.749,56.383 C194.905,54.137 190.954,51.94 186.912,49.82 C188.721,47.917 190.476,46.071 192.166,44.292 C193.119,43.291 194.052,42.31 194.964,41.352 C195.755,40.541 196.459,39.666 197.172,38.838 C201.379,40.881 205.485,42.994 209.476,45.149 C209.583,45.207 209.69,45.264 209.796,45.322 C209.048,46.116 208.282,46.928 207.498,47.76 C206.58,48.709 205.7,49.729 204.685,50.68 C203.685,51.643 202.664,52.625 201.617,53.629 C200.678,54.53 199.722,55.448 198.749,56.383" id="Fill-19" opacity="0.761096014"></path>
            <path d="M53.2662207,67.523 C53.1212207,67.523 52.9752207,67.518 52.8282207,67.508 C49.3802207,67.27 46.7762207,64.278 47.0152207,60.828 C47.2432207,57.527 49.9932207,55 53.2542207,55 C53.4002207,55 53.5462207,55.006 53.6942207,55.016 C57.1422207,55.254 59.7442207,58.244 59.5052207,61.693 C59.2772207,64.997 56.5282207,67.523 53.2662207,67.523 L135.20831,72.7511092" id="Fill-20"></path>
        </g>
    </g>
</svg>