<svg xmlns="http://www.w3.org/2000/svg" xmlns:xlink="http://www.w3.org/1999/xlink" viewBox="0 0 415.01 543.39"><defs><style>.cls-1{isolation:isolate;}.cls-2{opacity:0.2;mix-blend-mode:multiply;}.cls-27,.cls-3{fill:#fff;}.cls-3{opacity:0;}.cls-4{fill:#f4f4f4;opacity:0.04;}.cls-5{fill:#e9e9e9;opacity:0.09;}.cls-6{fill:#dedede;opacity:0.13;}.cls-7{fill:#d3d3d3;opacity:0.17;}.cls-8{fill:#c8c8c8;opacity:0.22;}.cls-9{fill:#bcbcbc;opacity:0.26;}.cls-10{fill:#b1b1b1;opacity:0.3;}.cls-11{fill:#a6a6a6;opacity:0.35;}.cls-12{fill:#9b9b9b;opacity:0.39;}.cls-13{fill:#909090;opacity:0.43;}.cls-14{fill:#858585;opacity:0.48;}.cls-15{fill:#7a7a7a;opacity:0.52;}.cls-16{fill:#6f6f6f;opacity:0.57;}.cls-17{fill:#646464;opacity:0.61;}.cls-18{fill:#595959;opacity:0.65;}.cls-19{fill:#4e4e4e;opacity:0.7;}.cls-20{fill:#434343;opacity:0.74;}.cls-21{fill:#373737;opacity:0.78;}.cls-22{fill:#2c2c2c;opacity:0.83;}.cls-23{fill:#212121;opacity:0.87;}.cls-24{fill:#161616;opacity:0.91;}.cls-25{fill:#0b0b0b;opacity:0.96;}.cls-26{fill:#f2f2f2;}.cls-28{opacity:0.5;mix-blend-mode:soft-light;}.cls-29{fill:url(#linear-gradient);}.cls-30{fill:url(#White_Black);}.cls-31{fill:url(#White_Black-2);}</style><linearGradient id="linear-gradient" x1="200.1" y1="2.26" x2="200.1" y2="539.87" gradientUnits="userSpaceOnUse"><stop offset="0"/><stop offset="0.25" stop-color="#fff"/><stop offset="0.54"/><stop offset="0.74" stop-color="#fff"/><stop offset="1"/></linearGradient><linearGradient id="White_Black" x1="9.88" y1="271.07" x2="390.32" y2="271.07" gradientUnits="userSpaceOnUse"><stop offset="0" stop-color="#fff"/><stop offset="1"/></linearGradient><linearGradient id="White_Black-2" x1="200.1" y1="2.26" x2="200.1" y2="539.87" xlink:href="#White_Black"/></defs><title>Asset 2</title><g class="cls-1"><g id="Layer_2" data-name="Layer 2"><g id="Layer_1-2" data-name="Layer 1"><g class="cls-2"><path class="cls-3" d="M357.22,8.26c-8.27,0-8.27-8-16.55-8s-8.27,8-16.54,8-8.27-8-16.54-8-8.27,8-16.54,8-8.27-8-16.54-8-8.27,8-16.54,8-8.27-8-16.54-8-8.27,8-16.54,8-8.27-8-16.54-8-8.27,8-16.54,8-8.27-8-16.54-8-8.27,8-16.54,8-8.27-8-16.54-8-8.27,8-16.54,8-8.27-8-16.54-8-8.27,8-16.54,8S84.31.26,76,.26s-8.27,8-16.54,8S51.23.26,43,.26s-8.27,8-16.54,8S15.1-1.74,9.88.26,0,120.5,0,258.61,6,532.87,9.33,535.87a24.89,24.89,0,0,0,17.09,7c8.27,0,8.27-8,16.54-8s8.27,8,16.54,8,8.27-8,16.54-8,8.27,8,16.54,8,8.27-8,16.54-8,8.27,8,16.54,8,8.27-8,16.54-8,8.27,8,16.54,8,8.27-8,16.54-8,8.27,8,16.54,8,8.27-8,16.54-8,8.27,8,16.54,8,8.27-8,16.54-8,8.27,8,16.54,8,8.27-8,16.54-8,8.27,8,16.54,8,8.27-8,16.54-8,8.27,8,16.54,8,8.27-8,16.54-8,8.27,8,16.55,8,8.27-8,16.55-8,11.53,11,16.55,8,24.7-112.74,24.7-154-19.7-70.65-19.7-122.83S415,174.7,415,126.87s-21-118-24.7-118.61-8.27-8-16.55-8S365.5,8.26,357.22,8.26Z"/><path class="cls-4" d="M357.22,8.35c-8.27,0-8.27-8-16.55-8s-8.27,8-16.54,8-8.27-8-16.54-8-8.27,8-16.54,8-8.27-8-16.54-8-8.27,8-16.54,8-8.27-8-16.54-8-8.27,8-16.54,8-8.27-8-16.54-8-8.27,8-16.54,8-8.27-8-16.54-8-8.27,8-16.54,8-8.27-8-16.54-8-8.27,8-16.54,8-8.27-8-16.54-8-8.27,8-16.54,8S84.31.35,76,.35s-8.27,8-16.54,8S51.23.35,43,.35s-8.27,8-16.54,8S15.23-1.56,9.88.35C4.89,2.26.43,126.5.43,258.61S6.17,532.83,9.36,535.7c3.55,2.87,8.8,7,17.07,7s8.27-8,16.54-8,8.27,8,16.54,8,8.27-8,16.54-8,8.27,8,16.54,8,8.27-8,16.54-8,8.27,8,16.54,8,8.27-8,16.54-8,8.27,8,16.54,8,8.27-8,16.54-8,8.27,8,16.54,8,8.27-8,16.54-8,8.27,8,16.54,8,8.27-8,16.54-8,8.27,8,16.54,8,8.27-8,16.54-8,8.27,8,16.54,8,8.27-8,16.54-8,8.27,8,16.54,8,8.27-8,16.54-8,8.27,8,16.55,8,8.27-8,16.55-8,11.39,10.87,16.55,8c4.8-2.87,23.62-111.62,23.62-151.12S395.1,315.91,395.1,266s18.84-93.38,18.84-139.13S393.82,9,390.32,8.35c-3.86-.62-8.27-8-16.55-8S365.5,8.35,357.22,8.35Z"/><path class="cls-5" d="M357.22,8.44c-8.27,0-8.27-8-16.55-8s-8.27,8-16.54,8-8.27-8-16.54-8-8.27,8-16.54,8-8.27-8-16.54-8-8.27,8-16.54,8-8.27-8-16.54-8-8.27,8-16.54,8-8.27-8-16.54-8-8.27,8-16.54,8-8.27-8-16.54-8-8.27,8-16.54,8-8.27-8-16.54-8-8.27,8-16.54,8-8.27-8-16.54-8-8.27,8-16.54,8S84.31.44,76,.44s-8.27,8-16.54,8S51.23.44,43,.44s-8.27,8-16.54,8S15.37-1.39,9.88.44c-4.76,1.83-9,132.07-9,258.17S6.34,532.79,9.38,535.53c3.76,2.74,8.77,7.09,17,7.09s8.27-8,16.54-8,8.27,8,16.54,8,8.27-8,16.54-8,8.27,8,16.54,8,8.27-8,16.54-8,8.27,8,16.54,8,8.27-8,16.54-8,8.27,8,16.54,8,8.27-8,16.54-8,8.27,8,16.54,8,8.27-8,16.54-8,8.27,8,16.54,8,8.27-8,16.54-8,8.27,8,16.54,8,8.27-8,16.54-8,8.27,8,16.54,8,8.27-8,16.54-8,8.27,8,16.54,8,8.27-8,16.54-8,8.27,8,16.55,8,8.27-8,16.55-8,11.25,10.74,16.55,8c4.58-2.74,22.55-110.49,22.55-148.21s-18-80.76-18-128.4,18-95.46,18-139.13S393.66,9,390.32,8.44c-4.06-.59-8.27-8-16.55-8S365.5,8.44,357.22,8.44Z"/><path class="cls-6" d="M357.22,8.53c-8.27,0-8.27-8-16.55-8s-8.27,8-16.54,8-8.27-8-16.54-8-8.27,8-16.54,8-8.27-8-16.54-8-8.27,8-16.54,8-8.27-8-16.54-8-8.27,8-16.54,8-8.27-8-16.54-8-8.27,8-16.54,8-8.27-8-16.54-8-8.27,8-16.54,8-8.27-8-16.54-8-8.27,8-16.54,8-8.27-8-16.54-8-8.27,8-16.54,8S84.31.53,76,.53s-8.27,8-16.54,8S51.23.53,43,.53s-8.27,8-16.54,8S15.5-1.21,9.88.53c-4.54,1.74-8.59,138-8.59,258.09S6.51,532.74,9.41,535.35c4,2.61,8.75,7.13,17,7.13s8.27-8,16.54-8,8.27,8,16.54,8,8.27-8,16.54-8,8.27,8,16.54,8,8.27-8,16.54-8,8.27,8,16.54,8,8.27-8,16.54-8,8.27,8,16.54,8,8.27-8,16.54-8,8.27,8,16.54,8,8.27-8,16.54-8,8.27,8,16.54,8,8.27-8,16.54-8,8.27,8,16.54,8,8.27-8,16.54-8,8.27,8,16.54,8,8.27-8,16.54-8,8.27,8,16.54,8,8.27-8,16.54-8,8.27,8,16.55,8,8.27-8,16.55-8,11.11,10.61,16.55,8c4.36-2.61,21.47-109.37,21.47-145.29S394.67,311.37,394.67,266s17.13-97.54,17.13-139.13S393.5,9.09,390.32,8.53c-4.26-.56-8.27-8-16.55-8S365.5,8.53,357.22,8.53Z"/><path class="cls-7" d="M357.22,8.61c-8.27,0-8.27-8-16.55-8s-8.27,8-16.54,8-8.27-8-16.54-8-8.27,8-16.54,8-8.27-8-16.54-8-8.27,8-16.54,8-8.27-8-16.54-8-8.27,8-16.54,8-8.27-8-16.54-8-8.27,8-16.54,8-8.27-8-16.54-8-8.27,8-16.54,8-8.27-8-16.54-8-8.27,8-16.54,8-8.27-8-16.54-8-8.27,8-16.54,8S84.31.61,76,.61s-8.27,8-16.54,8S51.23.61,43,.61s-8.27,8-16.54,8S15.63-1,9.88.61c-4.31,1.65-8.17,143.9-8.17,258s5,274.09,7.71,276.57c4.19,2.48,8.72,7.17,17,7.17s8.27-8,16.54-8,8.27,8,16.54,8,8.27-8,16.54-8,8.27,8,16.54,8,8.27-8,16.54-8,8.27,8,16.54,8,8.27-8,16.54-8,8.27,8,16.54,8,8.27-8,16.54-8,8.27,8,16.54,8,8.27-8,16.54-8,8.27,8,16.54,8,8.27-8,16.54-8,8.27,8,16.54,8,8.27-8,16.54-8,8.27,8,16.54,8,8.27-8,16.54-8,8.27,8,16.54,8,8.27-8,16.54-8,8.27,8,16.55,8,8.27-8,16.55-8,11,10.48,16.55,8c4.14-2.48,20.4-108.25,20.4-142.37s-16.27-90.88-16.27-134,16.27-99.62,16.27-139.13S393.34,9.15,390.32,8.61c-4.46-.54-8.27-8-16.55-8S365.5,8.61,357.22,8.61Z"/><path class="cls-8" d="M357.22,8.7c-8.27,0-8.27-8-16.55-8s-8.27,8-16.54,8-8.27-8-16.54-8-8.27,8-16.54,8-8.27-8-16.54-8-8.27,8-16.54,8-8.27-8-16.54-8-8.27,8-16.54,8-8.27-8-16.54-8-8.27,8-16.54,8-8.27-8-16.54-8-8.27,8-16.54,8-8.27-8-16.54-8-8.27,8-16.54,8-8.27-8-16.54-8-8.27,8-16.54,8S84.31.7,76,.7s-8.27,8-16.54,8S51.23.7,43,.7s-8.27,8-16.54,8S15.76-.87,9.88.7C5.8,2.26,2.15,150.52,2.15,258.61s4.7,274,7.3,276.39c4.41,2.35,8.7,7.22,17,7.22s8.27-8,16.54-8,8.27,8,16.54,8,8.27-8,16.54-8,8.27,8,16.54,8,8.27-8,16.54-8,8.27,8,16.54,8,8.27-8,16.54-8,8.27,8,16.54,8,8.27-8,16.54-8,8.27,8,16.54,8,8.27-8,16.54-8,8.27,8,16.54,8,8.27-8,16.54-8,8.27,8,16.54,8,8.27-8,16.54-8,8.27,8,16.54,8,8.27-8,16.54-8,8.27,8,16.54,8,8.27-8,16.54-8,8.27,8,16.55,8,8.27-8,16.55-8,10.82,10.35,16.55,8c3.92-2.35,19.33-107.12,19.33-139.45S394.23,306.84,394.23,266s15.41-101.7,15.41-139.13S393.18,9.21,390.32,8.7c-4.66-.51-8.27-8-16.55-8S365.5,8.7,357.22,8.7Z"/><path class="cls-9" d="M357.22,8.79c-8.27,0-8.27-8-16.55-8s-8.27,8-16.54,8-8.27-8-16.54-8-8.27,8-16.54,8-8.27-8-16.54-8-8.27,8-16.54,8-8.27-8-16.54-8-8.27,8-16.54,8-8.27-8-16.54-8-8.27,8-16.54,8-8.27-8-16.54-8-8.27,8-16.54,8-8.27-8-16.54-8-8.27,8-16.54,8-8.27-8-16.54-8-8.27,8-16.54,8S84.31.79,76,.79s-8.27,8-16.54,8S51.23.79,43,.79s-8.27,8-16.54,8S15.9-.69,9.88.79C6,2.26,2.58,156.53,2.58,258.61s4.43,274,6.9,276.22c4.62,2.22,8.68,7.26,16.95,7.26s8.27-8,16.54-8,8.27,8,16.54,8,8.27-8,16.54-8,8.27,8,16.54,8,8.27-8,16.54-8,8.27,8,16.54,8,8.27-8,16.54-8,8.27,8,16.54,8,8.27-8,16.54-8,8.27,8,16.54,8,8.27-8,16.54-8,8.27,8,16.54,8,8.27-8,16.54-8,8.27,8,16.54,8,8.27-8,16.54-8,8.27,8,16.54,8,8.27-8,16.54-8,8.27,8,16.54,8,8.27-8,16.54-8,8.27,8,16.55,8,8.27-8,16.55-8,10.68,10.22,16.55,8c3.71-2.22,18.25-106,18.25-136.53S394,304.57,394,266s14.56-103.78,14.56-139.13S393,9.27,390.32,8.79c-4.86-.48-8.27-8-16.55-8S365.5,8.79,357.22,8.79Z"/><path class="cls-10" d="M357.22,8.87c-8.27,0-8.27-8-16.55-8s-8.27,8-16.54,8-8.27-8-16.54-8-8.27,8-16.54,8-8.27-8-16.54-8-8.27,8-16.54,8-8.27-8-16.54-8-8.27,8-16.54,8-8.27-8-16.54-8-8.27,8-16.54,8-8.27-8-16.54-8-8.27,8-16.54,8-8.27-8-16.54-8-8.27,8-16.54,8-8.27-8-16.54-8-8.27,8-16.54,8S84.31.87,76,.87s-8.27,8-16.54,8S51.23.87,43,.87s-8.27,8-16.54,8S16-.52,9.88.87C6.25,2.26,3,162.53,3,258.61s4.17,274,6.49,276c4.84,2.09,8.65,7.3,16.92,7.3s8.27-8,16.54-8,8.27,8,16.54,8,8.27-8,16.54-8,8.27,8,16.54,8,8.27-8,16.54-8,8.27,8,16.54,8,8.27-8,16.54-8,8.27,8,16.54,8,8.27-8,16.54-8,8.27,8,16.54,8,8.27-8,16.54-8,8.27,8,16.54,8,8.27-8,16.54-8,8.27,8,16.54,8,8.27-8,16.54-8,8.27,8,16.54,8,8.27-8,16.54-8,8.27,8,16.54,8,8.27-8,16.54-8,8.27,8,16.55,8,8.27-8,16.55-8,10.54,10.09,16.55,8c3.49-2.09,17.18-104.88,17.18-133.61S393.8,302.3,393.8,266s13.7-105.86,13.7-139.13S392.86,9.33,390.32,8.87c-5.06-.45-8.27-8-16.55-8S365.5,8.87,357.22,8.87Z"/><path class="cls-11" d="M357.22,9C349,9,349,1,340.68,1s-8.27,8-16.54,8-8.27-8-16.54-8-8.27,8-16.54,8-8.27-8-16.54-8S266.24,9,258,9s-8.27-8-16.54-8-8.27,8-16.54,8-8.27-8-16.54-8-8.27,8-16.54,8-8.27-8-16.54-8S167,9,158.74,9s-8.27-8-16.54-8-8.27,8-16.54,8-8.27-8-16.54-8-8.27,8-16.54,8S84.31,1,76,1,67.77,9,59.5,9,51.23,1,43,1,34.69,9,26.42,9,16.16-.34,9.88,1c-3.4,1.3-6.45,167.58-6.45,257.65S7.35,532.53,9.52,534.48c5.05,2,8.63,7.35,16.9,7.35s8.27-8,16.54-8,8.27,8,16.54,8,8.27-8,16.54-8,8.27,8,16.54,8,8.27-8,16.54-8,8.27,8,16.54,8,8.27-8,16.54-8,8.27,8,16.54,8,8.27-8,16.54-8,8.27,8,16.54,8,8.27-8,16.54-8,8.27,8,16.54,8,8.27-8,16.54-8,8.27,8,16.54,8,8.27-8,16.54-8,8.27,8,16.54,8,8.27-8,16.54-8,8.27,8,16.54,8,8.27-8,16.54-8,8.27,8,16.55,8,8.27-8,16.55-8,10.4,10,16.55,8c3.27-2,16.11-103.76,16.11-130.69S393.58,300,393.58,266s12.84-107.94,12.84-139.13S392.71,9.38,390.32,9c-5.26-.42-8.27-8-16.55-8S365.5,9,357.22,9Z"/><path class="cls-12" d="M357.22,9C349,9,349,1,340.68,1s-8.27,8-16.54,8-8.27-8-16.54-8-8.27,8-16.54,8-8.27-8-16.54-8S266.24,9,258,9s-8.27-8-16.54-8-8.27,8-16.54,8-8.27-8-16.54-8-8.27,8-16.54,8-8.27-8-16.54-8S167,9,158.74,9s-8.27-8-16.54-8-8.27,8-16.54,8-8.27-8-16.54-8-8.27,8-16.54,8S84.31,1,76,1,67.77,9,59.5,9,51.23,1,43,1,34.69,9,26.42,9,16.3-.17,9.88,1c-3.18,1.22-6,173.49-6,257.57s3.65,273.87,5.68,275.7c5.26,1.83,8.6,7.39,16.87,7.39s8.27-8,16.54-8,8.27,8,16.54,8,8.27-8,16.54-8,8.27,8,16.54,8,8.27-8,16.54-8,8.27,8,16.54,8,8.27-8,16.54-8,8.27,8,16.54,8,8.27-8,16.54-8,8.27,8,16.54,8,8.27-8,16.54-8,8.27,8,16.54,8,8.27-8,16.54-8,8.27,8,16.54,8,8.27-8,16.54-8,8.27,8,16.54,8,8.27-8,16.54-8,8.27,8,16.54,8,8.27-8,16.54-8,8.27,8,16.55,8,8.27-8,16.55-8,10.26,9.83,16.55,8c3.05-1.83,15-102.63,15-127.78s-12-116.16-12-147.92,12-110,12-139.13S392.55,9.44,390.32,9c-5.47-.4-8.27-8-16.55-8S365.5,9,357.22,9Z"/><path class="cls-13" d="M357.22,9.13c-8.27,0-8.27-8-16.55-8s-8.27,8-16.54,8-8.27-8-16.54-8-8.27,8-16.54,8-8.27-8-16.54-8-8.27,8-16.54,8-8.27-8-16.54-8-8.27,8-16.54,8-8.27-8-16.54-8-8.27,8-16.54,8-8.27-8-16.54-8-8.27,8-16.54,8-8.27-8-16.54-8-8.27,8-16.54,8-8.27-8-16.54-8-8.27,8-16.54,8-8.27-8-16.54-8-8.27,8-16.54,8-8.27-8-16.54-8-8.27,8-16.54,8-10-9.13-16.54-8C6.94,2.26,4.3,180.55,4.3,258.61S7.69,532.44,9.57,534.13c5.48,1.7,8.58,7.43,16.85,7.43s8.27-8,16.54-8,8.27,8,16.54,8,8.27-8,16.54-8,8.27,8,16.54,8,8.27-8,16.54-8,8.27,8,16.54,8,8.27-8,16.54-8,8.27,8,16.54,8,8.27-8,16.54-8,8.27,8,16.54,8,8.27-8,16.54-8,8.27,8,16.54,8,8.27-8,16.54-8,8.27,8,16.54,8,8.27-8,16.54-8,8.27,8,16.54,8,8.27-8,16.54-8,8.27,8,16.54,8,8.27-8,16.54-8,8.27,8,16.55,8,8.27-8,16.55-8,10.12,9.7,16.55,8c2.83-1.7,14-101.51,14-124.86S393.14,295.49,393.14,266s11.13-112.1,11.13-139.13S392.39,9.5,390.32,9.13c-5.67-.37-8.27-8-16.55-8S365.5,9.13,357.22,9.13Z"/><path class="cls-14" d="M357.22,9.22c-8.27,0-8.27-8-16.55-8s-8.27,8-16.54,8-8.27-8-16.54-8-8.27,8-16.54,8-8.27-8-16.54-8-8.27,8-16.54,8-8.27-8-16.54-8-8.27,8-16.54,8-8.27-8-16.54-8-8.27,8-16.54,8-8.27-8-16.54-8-8.27,8-16.54,8-8.27-8-16.54-8-8.27,8-16.54,8-8.27-8-16.54-8-8.27,8-16.54,8-8.27-8-16.54-8-8.27,8-16.54,8-8.27-8-16.54-8-8.27,8-16.54,8-9.86-9-16.54-8c-2.72,1-5.16,185.33-5.16,257.39S7.86,532.39,9.6,534c5.69,1.57,8.56,7.48,16.83,7.48s8.27-8,16.54-8,8.27,8,16.54,8,8.27-8,16.54-8,8.27,8,16.54,8,8.27-8,16.54-8,8.27,8,16.54,8,8.27-8,16.54-8,8.27,8,16.54,8,8.27-8,16.54-8,8.27,8,16.54,8,8.27-8,16.54-8,8.27,8,16.54,8,8.27-8,16.54-8,8.27,8,16.54,8,8.27-8,16.54-8,8.27,8,16.54,8,8.27-8,16.54-8,8.27,8,16.54,8,8.27-8,16.54-8,8.27,8,16.55,8,8.27-8,16.55-8,10,9.57,16.55,8c2.62-1.57,12.88-100.39,12.88-121.94S392.93,293.23,392.93,266,403.2,151.83,403.2,126.87,392.23,9.56,390.32,9.22c-5.87-.34-8.27-8-16.55-8S365.5,9.22,357.22,9.22Z"/><path class="cls-15" d="M357.22,9.31c-8.27,0-8.27-8-16.55-8s-8.27,8-16.54,8-8.27-8-16.54-8-8.27,8-16.54,8-8.27-8-16.54-8-8.27,8-16.54,8-8.27-8-16.54-8-8.27,8-16.54,8-8.27-8-16.54-8-8.27,8-16.54,8-8.27-8-16.54-8-8.27,8-16.54,8-8.27-8-16.54-8-8.27,8-16.54,8-8.27-8-16.54-8-8.27,8-16.54,8-8.27-8-16.54-8-8.27,8-16.54,8-8.27-8-16.54-8-8.27,8-16.54,8-9.73-9-16.54-8c-2.5,1-4.73,191.25-4.73,257.3S8,532.35,9.62,533.79c5.91,1.43,8.53,7.52,16.8,7.52s8.27-8,16.54-8,8.27,8,16.54,8,8.27-8,16.54-8,8.27,8,16.54,8,8.27-8,16.54-8,8.27,8,16.54,8,8.27-8,16.54-8,8.27,8,16.54,8,8.27-8,16.54-8,8.27,8,16.54,8,8.27-8,16.54-8,8.27,8,16.54,8,8.27-8,16.54-8,8.27,8,16.54,8,8.27-8,16.54-8,8.27,8,16.54,8,8.27-8,16.54-8,8.27,8,16.54,8,8.27-8,16.54-8,8.27,8,16.55,8,8.27-8,16.55-8,9.83,9.43,16.55,8c2.4-1.43,11.81-99.26,11.81-119S392.71,291,392.71,266s9.42-116.26,9.42-139.13S392.07,9.62,390.32,9.31c-6.07-.31-8.27-8-16.55-8S365.5,9.31,357.22,9.31Z"/><path class="cls-16" d="M357.22,9.39c-8.27,0-8.27-8-16.55-8s-8.27,8-16.54,8-8.27-8-16.54-8-8.27,8-16.54,8-8.27-8-16.54-8-8.27,8-16.54,8-8.27-8-16.54-8-8.27,8-16.54,8-8.27-8-16.54-8-8.27,8-16.54,8-8.27-8-16.54-8-8.27,8-16.54,8-8.27-8-16.54-8-8.27,8-16.54,8-8.27-8-16.54-8-8.27,8-16.54,8-8.27-8-16.54-8-8.27,8-16.54,8-8.27-8-16.54-8-8.27,8-16.54,8-9.6-8.87-16.54-8c-2.27.87-4.3,197.17-4.3,257.22s2.61,273.7,4.06,275c6.12,1.3,8.51,7.57,16.78,7.57s8.27-8,16.54-8,8.27,8,16.54,8,8.27-8,16.54-8,8.27,8,16.54,8,8.27-8,16.54-8,8.27,8,16.54,8,8.27-8,16.54-8,8.27,8,16.54,8,8.27-8,16.54-8,8.27,8,16.54,8,8.27-8,16.54-8,8.27,8,16.54,8,8.27-8,16.54-8,8.27,8,16.54,8,8.27-8,16.54-8,8.27,8,16.54,8,8.27-8,16.54-8,8.27,8,16.54,8,8.27-8,16.54-8,8.27,8,16.55,8,8.27-8,16.55-8,9.69,9.3,16.55,8c2.18-1.3,10.74-98.14,10.74-116.1S392.49,288.69,392.49,266s8.56-118.34,8.56-139.13S391.91,9.68,390.32,9.39c-6.27-.28-8.27-8-16.55-8S365.5,9.39,357.22,9.39Z"/><path class="cls-17" d="M357.22,9.48c-8.27,0-8.27-8-16.55-8s-8.27,8-16.54,8-8.27-8-16.54-8-8.27,8-16.54,8-8.27-8-16.54-8-8.27,8-16.54,8-8.27-8-16.54-8-8.27,8-16.54,8-8.27-8-16.54-8-8.27,8-16.54,8-8.27-8-16.54-8-8.27,8-16.54,8-8.27-8-16.54-8-8.27,8-16.54,8-8.27-8-16.54-8-8.27,8-16.54,8-8.27-8-16.54-8-8.27,8-16.54,8-8.27-8-16.54-8-8.27,8-16.54,8S17,.7,9.88,1.48C7.84,2.26,6,204.57,6,258.61S8.36,532.26,9.67,533.44C16,534.61,18.15,541,26.42,541s8.27-8,16.54-8,8.27,8,16.54,8,8.27-8,16.54-8,8.27,8,16.54,8,8.27-8,16.54-8,8.27,8,16.54,8,8.27-8,16.54-8,8.27,8,16.54,8,8.27-8,16.54-8,8.27,8,16.54,8,8.27-8,16.54-8,8.27,8,16.54,8,8.27-8,16.54-8,8.27,8,16.54,8,8.27-8,16.54-8,8.27,8,16.54,8,8.27-8,16.54-8,8.27,8,16.54,8,8.27-8,16.54-8,8.27,8,16.55,8,8.27-8,16.55-8,9.55,9.17,16.55,8c2-1.17,9.66-97,9.66-113.18S392.28,286.42,392.28,266,400,145.59,400,126.87,391.75,9.74,390.32,9.48c-6.47-.25-8.27-8-16.55-8S365.5,9.48,357.22,9.48Z"/><path class="cls-18" d="M357.22,9.57c-8.27,0-8.27-8-16.55-8s-8.27,8-16.54,8-8.27-8-16.54-8-8.27,8-16.54,8-8.27-8-16.54-8-8.27,8-16.54,8-8.27-8-16.54-8-8.27,8-16.54,8-8.27-8-16.54-8-8.27,8-16.54,8-8.27-8-16.54-8-8.27,8-16.54,8-8.27-8-16.54-8-8.27,8-16.54,8-8.27-8-16.54-8-8.27,8-16.54,8-8.27-8-16.54-8-8.27,8-16.54,8-8.27-8-16.54-8-8.27,8-16.54,8-9.33-8.7-16.54-8c-1.81.7-3.44,209-3.44,257S8.53,532.22,9.69,533.26c6.55,1,8.46,7.65,16.73,7.65s8.27-8,16.54-8,8.27,8,16.54,8,8.27-8,16.54-8,8.27,8,16.54,8,8.27-8,16.54-8,8.27,8,16.54,8,8.27-8,16.54-8,8.27,8,16.54,8,8.27-8,16.54-8,8.27,8,16.54,8,8.27-8,16.54-8,8.27,8,16.54,8,8.27-8,16.54-8,8.27,8,16.54,8,8.27-8,16.54-8,8.27,8,16.54,8,8.27-8,16.54-8,8.27,8,16.54,8,8.27-8,16.54-8,8.27,8,16.55,8,8.27-8,16.55-8,9.41,9,16.55,8c1.74-1,8.59-95.9,8.59-110.26s-6.85-146.5-6.85-164.65,6.85-122.5,6.85-139.13S391.59,9.79,390.32,9.57c-6.67-.23-8.27-8-16.55-8S365.5,9.57,357.22,9.57Z"/><path class="cls-19" d="M357.22,9.66c-8.27,0-8.27-8-16.55-8s-8.27,8-16.54,8-8.27-8-16.54-8-8.27,8-16.54,8-8.27-8-16.54-8-8.27,8-16.54,8-8.27-8-16.54-8-8.27,8-16.54,8-8.27-8-16.54-8-8.27,8-16.54,8-8.27-8-16.54-8-8.27,8-16.54,8-8.27-8-16.54-8-8.27,8-16.54,8-8.27-8-16.54-8-8.27,8-16.54,8-8.27-8-16.54-8-8.27,8-16.54,8-8.27-8-16.54-8-8.27,8-16.54,8S17.22,1,9.88,1.66c-1.59.61-3,214.92-3,257S8.7,532.18,9.72,533.09c6.77.91,8.44,7.7,16.71,7.7s8.27-8,16.54-8,8.27,8,16.54,8,8.27-8,16.54-8,8.27,8,16.54,8,8.27-8,16.54-8,8.27,8,16.54,8,8.27-8,16.54-8,8.27,8,16.54,8,8.27-8,16.54-8,8.27,8,16.54,8,8.27-8,16.54-8,8.27,8,16.54,8,8.27-8,16.54-8,8.27,8,16.54,8,8.27-8,16.54-8,8.27,8,16.54,8,8.27-8,16.54-8,8.27,8,16.54,8,8.27-8,16.54-8,8.27,8,16.55,8,8.27-8,16.55-8,9.27,8.91,16.55,8c1.53-.91,7.52-94.77,7.52-107.34s-6-151.56-6-167.44,6-124.57,6-139.13-6.4-117-7.52-117.22c-6.87-.2-8.27-8-16.55-8S365.5,9.66,357.22,9.66Z"/><path class="cls-20" d="M357.22,9.74c-8.27,0-8.27-8-16.55-8s-8.27,8-16.54,8-8.27-8-16.54-8-8.27,8-16.54,8-8.27-8-16.54-8-8.27,8-16.54,8-8.27-8-16.54-8-8.27,8-16.54,8-8.27-8-16.54-8-8.27,8-16.54,8-8.27-8-16.54-8-8.27,8-16.54,8-8.27-8-16.54-8-8.27,8-16.54,8-8.27-8-16.54-8-8.27,8-16.54,8-8.27-8-16.54-8-8.27,8-16.54,8-8.27-8-16.54-8-8.27,8-16.54,8-9.07-8.52-16.54-8c-1.36.52-2.58,220.84-2.58,256.87s1.57,273.52,2.43,274.3c7,.78,8.41,7.74,16.68,7.74s8.27-8,16.54-8,8.27,8,16.54,8,8.27-8,16.54-8,8.27,8,16.54,8,8.27-8,16.54-8,8.27,8,16.54,8,8.27-8,16.54-8,8.27,8,16.54,8,8.27-8,16.54-8,8.27,8,16.54,8,8.27-8,16.54-8,8.27,8,16.54,8,8.27-8,16.54-8,8.27,8,16.54,8,8.27-8,16.54-8,8.27,8,16.54,8,8.27-8,16.54-8,8.27,8,16.54,8,8.27-8,16.54-8,8.27,8,16.55,8,8.27-8,16.55-8,9.12,8.78,16.55,8c1.31-.78,6.44-93.65,6.44-104.43S391.62,279.61,391.62,266s5.14-126.65,5.14-139.13-5.49-117-6.44-117.13c-7.07-.17-8.27-8-16.55-8S365.5,9.74,357.22,9.74Z"/><path class="cls-21" d="M357.22,9.83c-8.27,0-8.27-8-16.55-8s-8.27,8-16.54,8-8.27-8-16.54-8-8.27,8-16.54,8-8.27-8-16.54-8-8.27,8-16.54,8-8.27-8-16.54-8-8.27,8-16.54,8-8.27-8-16.54-8-8.27,8-16.54,8-8.27-8-16.54-8-8.27,8-16.54,8-8.27-8-16.54-8-8.27,8-16.54,8-8.27-8-16.54-8-8.27,8-16.54,8-8.27-8-16.54-8-8.27,8-16.54,8-8.27-8-16.54-8-8.27,8-16.54,8-8.93-8.43-16.54-8c-1.13.43-2.15,226.76-2.15,256.78s1.3,273.48,2,274.13c7.2.65,8.39,7.78,16.66,7.78s8.27-8,16.54-8,8.27,8,16.54,8,8.27-8,16.54-8,8.27,8,16.54,8,8.27-8,16.54-8,8.27,8,16.54,8,8.27-8,16.54-8,8.27,8,16.54,8,8.27-8,16.54-8,8.27,8,16.54,8,8.27-8,16.54-8,8.27,8,16.54,8,8.27-8,16.54-8,8.27,8,16.54,8,8.27-8,16.54-8,8.27,8,16.54,8,8.27-8,16.54-8,8.27,8,16.54,8,8.27-8,16.54-8,8.27,8,16.55,8,8.27-8,16.55-8,9,8.65,16.55,8c1.09-.65,5.37-92.53,5.37-101.51s-4.28-161.67-4.28-173,4.28-128.73,4.28-139.13-4.57-116.9-5.37-117c-7.27-.14-8.27-8-16.55-8S365.5,9.83,357.22,9.83Z"/><path class="cls-22" d="M357.22,9.92c-8.27,0-8.27-8-16.55-8s-8.27,8-16.54,8-8.27-8-16.54-8-8.27,8-16.54,8-8.27-8-16.54-8-8.27,8-16.54,8-8.27-8-16.54-8-8.27,8-16.54,8-8.27-8-16.54-8-8.27,8-16.54,8-8.27-8-16.54-8-8.27,8-16.54,8-8.27-8-16.54-8-8.27,8-16.54,8-8.27-8-16.54-8-8.27,8-16.54,8-8.27-8-16.54-8-8.27,8-16.54,8-8.27-8-16.54-8-8.27,8-16.54,8-8.8-8.35-16.54-8C9,2.26,8.17,234.59,8.17,258.61s1,273.43,1.62,274c7.41.52,8.37,7.83,16.63,7.83s8.27-8,16.54-8,8.27,8,16.54,8,8.27-8,16.54-8,8.27,8,16.54,8,8.27-8,16.54-8,8.27,8,16.54,8,8.27-8,16.54-8,8.27,8,16.54,8,8.27-8,16.54-8,8.27,8,16.54,8,8.27-8,16.54-8,8.27,8,16.54,8,8.27-8,16.54-8,8.27,8,16.54,8,8.27-8,16.54-8,8.27,8,16.54,8,8.27-8,16.54-8,8.27,8,16.54,8,8.27-8,16.54-8,8.27,8,16.55,8,8.27-8,16.55-8,8.84,8.52,16.55,8c.87-.52,4.29-91.4,4.29-98.59s-3.43-166.73-3.43-175.8,3.43-130.81,3.43-139.13S391,10,390.32,9.92c-7.47-.11-8.27-8-16.55-8S365.5,9.92,357.22,9.92Z"/><path class="cls-23" d="M357.22,10C349,10,349,2,340.68,2s-8.27,8-16.54,8-8.27-8-16.54-8-8.27,8-16.54,8-8.27-8-16.54-8-8.27,8-16.54,8-8.27-8-16.54-8-8.27,8-16.54,8-8.27-8-16.54-8-8.27,8-16.54,8-8.27-8-16.54-8-8.27,8-16.54,8-8.27-8-16.54-8-8.27,8-16.54,8-8.27-8-16.54-8-8.27,8-16.54,8S84.31,2,76,2s-8.27,8-16.54,8S51.23,2,43,2s-8.27,8-16.54,8S17.76,1.74,9.88,2C9.2,2.26,8.59,240.6,8.59,258.61S9.38,532,9.81,532.39c7.63.39,8.34,7.87,16.61,7.87s8.27-8,16.54-8,8.27,8,16.54,8,8.27-8,16.54-8,8.27,8,16.54,8,8.27-8,16.54-8,8.27,8,16.54,8,8.27-8,16.54-8,8.27,8,16.54,8,8.27-8,16.54-8,8.27,8,16.54,8,8.27-8,16.54-8,8.27,8,16.54,8,8.27-8,16.54-8,8.27,8,16.54,8,8.27-8,16.54-8,8.27,8,16.54,8,8.27-8,16.54-8,8.27,8,16.54,8,8.27-8,16.54-8,8.27,8,16.55,8,8.27-8,16.55-8,8.7,8.39,16.55,8c.65-.39,3.22-90.28,3.22-95.67S391,272.81,391,266s2.57-132.89,2.57-139.13S390.8,10.09,390.32,10c-7.67-.08-8.27-8-16.55-8S365.5,10,357.22,10Z"/><path class="cls-24" d="M357.22,10.09c-8.27,0-8.27-8-16.55-8s-8.27,8-16.54,8-8.27-8-16.54-8-8.27,8-16.54,8-8.27-8-16.54-8-8.27,8-16.54,8-8.27-8-16.54-8-8.27,8-16.54,8-8.27-8-16.54-8-8.27,8-16.54,8-8.27-8-16.54-8-8.27,8-16.54,8-8.27-8-16.54-8-8.27,8-16.54,8-8.27-8-16.54-8-8.27,8-16.54,8-8.27-8-16.54-8-8.27,8-16.54,8-8.27-8-16.54-8-8.27,8-16.54,8-8.53-8.17-16.54-8C9.43,2.26,9,246.6,9,258.61S9.55,532,9.84,532.22c7.84.26,8.32,7.91,16.59,7.91s8.27-8,16.54-8,8.27,8,16.54,8,8.27-8,16.54-8,8.27,8,16.54,8,8.27-8,16.54-8,8.27,8,16.54,8,8.27-8,16.54-8,8.27,8,16.54,8,8.27-8,16.54-8,8.27,8,16.54,8,8.27-8,16.54-8,8.27,8,16.54,8,8.27-8,16.54-8,8.27,8,16.54,8,8.27-8,16.54-8,8.27,8,16.54,8,8.27-8,16.54-8,8.27,8,16.54,8,8.27-8,16.54-8,8.27,8,16.55,8,8.27-8,16.55-8,8.56,8.26,16.55,8c.44-.26,2.15-89.16,2.15-92.75S390.75,270.54,390.75,266s1.71-135,1.71-139.13-1.83-116.73-2.15-116.78c-7.87-.06-8.27-8-16.55-8S365.5,10.09,357.22,10.09Z"/><path class="cls-25" d="M357.22,10.18c-8.27,0-8.27-8-16.55-8s-8.27,8-16.54,8-8.27-8-16.54-8-8.27,8-16.54,8-8.27-8-16.54-8-8.27,8-16.54,8-8.27-8-16.54-8-8.27,8-16.54,8-8.27-8-16.54-8-8.27,8-16.54,8-8.27-8-16.54-8-8.27,8-16.54,8-8.27-8-16.54-8-8.27,8-16.54,8-8.27-8-16.54-8-8.27,8-16.54,8-8.27-8-16.54-8-8.27,8-16.54,8-8.27-8-16.54-8-8.27,8-16.54,8S18,2.09,9.88,2.18c-.23.09-.43,250.43-.43,256.43s.26,273.3.41,273.43c8.05.13,8.29,8,16.56,8s8.27-8,16.54-8,8.27,8,16.54,8,8.27-8,16.54-8,8.27,8,16.54,8,8.27-8,16.54-8,8.27,8,16.54,8,8.27-8,16.54-8,8.27,8,16.54,8,8.27-8,16.54-8,8.27,8,16.54,8,8.27-8,16.54-8,8.27,8,16.54,8,8.27-8,16.54-8,8.27,8,16.54,8,8.27-8,16.54-8,8.27,8,16.54,8,8.27-8,16.54-8,8.27,8,16.54,8,8.27-8,16.54-8,8.27,8,16.55,8,8.27-8,16.55-8,8.42,8.13,16.55,8c.22-.13,1.07-88,1.07-89.83s-.86-181.9-.86-184.17.86-137.05.86-139.13-.91-116.67-1.07-116.7c-8.07,0-8.27-8-16.55-8S365.5,10.18,357.22,10.18Z"/><path d="M357.22,10.26c-8.27,0-8.27-8-16.55-8s-8.27,8-16.54,8-8.27-8-16.54-8-8.27,8-16.54,8-8.27-8-16.54-8-8.27,8-16.54,8-8.27-8-16.54-8-8.27,8-16.54,8-8.27-8-16.54-8-8.27,8-16.54,8-8.27-8-16.54-8-8.27,8-16.54,8-8.27-8-16.54-8-8.27,8-16.54,8-8.27-8-16.54-8-8.27,8-16.54,8-8.27-8-16.54-8-8.27,8-16.54,8-8.27-8-16.54-8-8.27,8-16.54,8-8.27-8-16.54-8V531.87c8.27,0,8.27,8,16.54,8s8.27-8,16.54-8,8.27,8,16.54,8,8.27-8,16.54-8,8.27,8,16.54,8,8.27-8,16.54-8,8.27,8,16.54,8,8.27-8,16.54-8,8.27,8,16.54,8,8.27-8,16.54-8,8.27,8,16.54,8,8.27-8,16.54-8,8.27,8,16.54,8,8.27-8,16.54-8,8.27,8,16.54,8,8.27-8,16.54-8,8.27,8,16.54,8,8.27-8,16.54-8,8.27,8,16.54,8,8.27-8,16.54-8,8.27,8,16.55,8,8.27-8,16.55-8,8.27,8,16.55,8V10.26c-8.27,0-8.27-8-16.55-8S365.5,10.26,357.22,10.26Z"/></g><path class="cls-26" d="M357.22,10.26c-8.27,0-8.27-8-16.55-8s-8.27,8-16.54,8-8.27-8-16.54-8-8.27,8-16.54,8-8.27-8-16.54-8-8.27,8-16.54,8-8.27-8-16.54-8-8.27,8-16.54,8-8.27-8-16.54-8-8.27,8-16.54,8-8.27-8-16.54-8-8.27,8-16.54,8-8.27-8-16.54-8-8.27,8-16.54,8-8.27-8-16.54-8-8.27,8-16.54,8-8.27-8-16.54-8-8.27,8-16.54,8-8.27-8-16.54-8-8.27,8-16.54,8-8.27-8-16.54-8V531.87c8.27,0,8.27,8,16.54,8s8.27-8,16.54-8,8.27,8,16.54,8,8.27-8,16.54-8,8.27,8,16.54,8,8.27-8,16.54-8,8.27,8,16.54,8,8.27-8,16.54-8,8.27,8,16.54,8,8.27-8,16.54-8,8.27,8,16.54,8,8.27-8,16.54-8,8.27,8,16.54,8,8.27-8,16.54-8,8.27,8,16.54,8,8.27-8,16.54-8,8.27,8,16.54,8,8.27-8,16.54-8,8.27,8,16.54,8,8.27-8,16.54-8,8.27,8,16.55,8,8.27-8,16.55-8,8.27,8,16.55,8V10.26c-8.27,0-8.27-8-16.55-8S365.5,10.26,357.22,10.26Z"/><path class="cls-27" d="M390.31,10.41a10.64,10.64,0,0,1-3.41-.5,10.24,10.24,0,0,1-3-1.68c-1.81-1.42-3.26-3.23-5.17-4.35a9.76,9.76,0,0,0-6.36-1.15,8.76,8.76,0,0,0-3.08,1,13,13,0,0,0-2.61,2c-1.6,1.53-3.2,3.36-5.47,4.28a10.08,10.08,0,0,1-3.49.75,11.14,11.14,0,0,1-3.56-.37,10,10,0,0,1-3.23-1.6,27.25,27.25,0,0,1-2.63-2.29,11,11,0,0,0-5.4-3.31,9.59,9.59,0,0,0-1.56-.2c-.26,0-.55,0-.78,0s-.58,0-.82.05a8.4,8.4,0,0,0-3,.83c-1.88.91-3.29,2.61-5,4.21a12.38,12.38,0,0,1-3,2.09,10.24,10.24,0,0,1-3.6,1,13.87,13.87,0,0,1-1.81,0,11.24,11.24,0,0,1-1.88-.26A10,10,0,0,1,318,9.45C315.92,8,314.47,6.2,312.78,5a9.16,9.16,0,0,0-8.6-.9,9.78,9.78,0,0,0-2.51,1.67c-1.58,1.38-3.1,3.32-5.41,4.57a10.46,10.46,0,0,1-3.7,1.18,13,13,0,0,1-1.9.1h-.43l-.5,0c-.34,0-.65-.08-1-.13a10.31,10.31,0,0,1-3.65-1.4,17.86,17.86,0,0,1-2.88-2.31c-1.67-1.62-3.14-3-5-3.56a8.78,8.78,0,0,0-2.84-.39,9.08,9.08,0,0,0-1.49.14,7.34,7.34,0,0,0-1.37.37c-1.77.63-3.19,2.08-4.87,3.73a16.59,16.59,0,0,1-2.94,2.34A10.6,10.6,0,0,1,260,11.72a12.74,12.74,0,0,1-1.94.17h-.92c-.34,0-.7,0-1-.1a10.7,10.7,0,0,1-3.79-1.26C250,9.19,248.45,7.24,246.88,6a8.35,8.35,0,0,0-10.42-.28c-1.56,1.17-3,3.07-5.22,4.57a11,11,0,0,1-3.74,1.58,13.29,13.29,0,0,1-3.93.21,11.07,11.07,0,0,1-3.94-1.1,14.44,14.44,0,0,1-3.19-2.26c-1.8-1.66-3.18-3.17-4.82-3.85a7.6,7.6,0,0,0-2.62-.6h-.67c-.26,0-.62,0-.8,0a8.08,8.08,0,0,0-1.3.23c-1.73.43-3.11,1.59-4.72,3.21a24,24,0,0,1-2.79,2.45A11.34,11.34,0,0,1,195,11.95a13.37,13.37,0,0,1-4,.39,12.51,12.51,0,0,1-2.09-.29,10.73,10.73,0,0,1-2-.65,13.28,13.28,0,0,1-3.37-2.2c-1-.83-1.76-1.66-2.53-2.35a7.74,7.74,0,0,0-4.78-2.33,7.61,7.61,0,0,0-5.08,1.14c-1.51.95-2.87,2.73-5,4.39a11.7,11.7,0,0,1-3.69,2,12.45,12.45,0,0,1-4.12.55H158l-.55,0c-.38,0-.72-.09-1.07-.14a11.11,11.11,0,0,1-2.05-.57,12.48,12.48,0,0,1-3.55-2.13c-2-1.69-3.35-3.35-4.86-4.16a6.67,6.67,0,0,0-2.39-.81c-.21,0-.44,0-.66-.07l-.62,0c-.26,0-.62,0-.8,0s-.38,0-.6.08a8.24,8.24,0,0,0-4.61,2.64c-.78.73-1.61,1.6-2.63,2.43a12.45,12.45,0,0,1-3.6,2.12,12.35,12.35,0,0,1-4.13.74h-1c-.33,0-.75-.06-1.1-.1a12,12,0,0,1-2.08-.47,12.12,12.12,0,0,1-3.7-2A35.29,35.29,0,0,1,115.3,7.6a8.78,8.78,0,0,0-4.57-2.77,8.35,8.35,0,0,0-1.31-.13h-.7c-.33,0-.46,0-.66.05a6.65,6.65,0,0,0-2.37.73c-1.49.75-2.82,2.33-4.75,4a13.44,13.44,0,0,1-3.48,2.25,12.07,12.07,0,0,1-4.15.93l-.51,0h-1l-.54,0a12.32,12.32,0,0,1-2.13-.37,12,12,0,0,1-3.84-1.87C83.09,8.77,81.69,7,80.22,6a7.23,7.23,0,0,0-4.94-1.2,7.65,7.65,0,0,0-1.2.2,6,6,0,0,0-1.15.41,9,9,0,0,0-2.19,1.52c-.75.66-1.53,1.48-2.46,2.33a14.56,14.56,0,0,1-3.36,2.35,11.7,11.7,0,0,1-4.15,1.13c-.35,0-.69,0-1,.06h-1c-.32,0-.75-.06-1.11-.1s-.7-.1-1.06-.19a11.63,11.63,0,0,1-4-1.7,21.51,21.51,0,0,1-3-2.48c-1.67-1.64-3-2.77-4.51-3.18a8,8,0,0,0-2.57-.28,6.91,6.91,0,0,0-2.43.49C38.68,5.92,37.39,7.26,35.6,9a16,16,0,0,1-3.23,2.43,11.77,11.77,0,0,1-4.13,1.35,14.76,14.76,0,0,1-2.12.11,13.35,13.35,0,0,1-2.07-.19A11.54,11.54,0,0,1,20,11.15c-2.47-1.53-4-3.5-5.44-4.62A6.86,6.86,0,0,0,9.88,4.91l2.65-2.65,0,33.1-.06,33.1-.12,66.2-.12,66.2L12.21,234l-.14,33.1-.74,132.4L10,531.87h-.3L9.59,2.26V2h.29a10.74,10.74,0,0,1,3.45.55,10.32,10.32,0,0,1,3,1.73c1.81,1.45,3.22,3.27,5.13,4.41a9.8,9.8,0,0,0,6.38,1.23,8.85,8.85,0,0,0,3.12-1,13.15,13.15,0,0,0,2.66-2c1.62-1.53,3.23-3.31,5.45-4.18A9.8,9.8,0,0,1,42.51,2,10.8,10.8,0,0,1,46,2.4,9.68,9.68,0,0,1,49.07,4a27,27,0,0,1,2.57,2.29A18.85,18.85,0,0,0,54.2,8.44a8.78,8.78,0,0,0,3,1.3,10.2,10.2,0,0,0,6.48-.66c2-1,3.49-2.72,5.2-4.24a11.67,11.67,0,0,1,2.87-2A9.58,9.58,0,0,1,75.14,2a10,10,0,0,1,6.63,1.7c1.92,1.33,3.33,3.17,5.14,4.48a9.19,9.19,0,0,0,3,1.45,10.84,10.84,0,0,0,3.29.33,9.34,9.34,0,0,0,3.22-.71,10.75,10.75,0,0,0,2.78-1.8c1.69-1.46,3.17-3.29,5.27-4.38a10.64,10.64,0,0,1,6.8-.89,9.33,9.33,0,0,1,3.23,1.29,16.92,16.92,0,0,1,2.67,2.19c1.62,1.58,3.26,3.2,5.39,3.87a10,10,0,0,0,3.28.47,9.71,9.71,0,0,0,3.26-.57c2.11-.75,3.7-2.41,5.34-4a15.24,15.24,0,0,1,2.72-2.14,9.24,9.24,0,0,1,3.28-1.16,10.41,10.41,0,0,1,6.76,1.1c2,1.16,3.5,3,5.22,4.42a9.91,9.91,0,0,0,2.83,1.72,9.45,9.45,0,0,0,3.25.61,9.32,9.32,0,0,0,6.21-2c1.78-1.35,3.19-3.2,5.16-4.47A10.11,10.11,0,0,1,176.5,2.1a9.39,9.39,0,0,1,3.33,1,12.82,12.82,0,0,1,2.8,2c1.67,1.54,3.19,3.28,5.25,4.17a10.38,10.38,0,0,0,6.53.47,12.29,12.29,0,0,0,5.53-3.63,22.07,22.07,0,0,1,2.59-2.25,9.41,9.41,0,0,1,3.14-1.47,10.77,10.77,0,0,1,6.82.51c2.16,1,3.71,2.75,5.36,4.26a12.33,12.33,0,0,0,2.71,2,9,9,0,0,0,3.18.9,9.65,9.65,0,0,0,6.38-1.43c1.88-1.21,3.29-3,5.13-4.45a10.53,10.53,0,0,1,9.89-1.4,10.42,10.42,0,0,1,3,1.8c1.76,1.47,3.2,3.28,5.16,4.37a10,10,0,0,0,6.47,1,8.78,8.78,0,0,0,3.12-1.12,14.91,14.91,0,0,0,2.63-2.08c1.61-1.55,3.27-3.28,5.5-4.06a10.25,10.25,0,0,1,3.4-.58,10.43,10.43,0,0,1,3.42.5c2.25.72,4,2.41,5.55,4A16.25,16.25,0,0,0,286,8.68,8.84,8.84,0,0,0,289,9.9,10.17,10.17,0,0,0,295.55,9c2-1,3.45-2.83,5.18-4.32a11.16,11.16,0,0,1,2.9-1.87A9.82,9.82,0,0,1,307,2.1a11.18,11.18,0,0,1,3.43.35A9.62,9.62,0,0,1,313.54,4c1.87,1.37,3.27,3.2,5.13,4.47a9.57,9.57,0,0,0,6.36,1.6,9.12,9.12,0,0,0,3.22-.82A11.34,11.34,0,0,0,331,7.34c1.67-1.49,3.19-3.3,5.3-4.31a9.35,9.35,0,0,1,3.33-.89,11.2,11.2,0,0,1,3.44.21,9.23,9.23,0,0,1,3.16,1.37,19.35,19.35,0,0,1,2.62,2.22c1.6,1.58,3.31,3.17,5.49,3.76a10.42,10.42,0,0,0,3.32.38,9.38,9.38,0,0,0,3.27-.67c2.1-.83,3.67-2.54,5.31-4.1A13.54,13.54,0,0,1,369,3.26a9.31,9.31,0,0,1,3.28-1.06,10.25,10.25,0,0,1,6.66,1.29c2,1.21,3.42,3,5.17,4.45A9.89,9.89,0,0,0,387,9.59a10.3,10.3,0,0,0,3.3.52Z"/><path class="cls-27" d="M9.89,531.77a10.57,10.57,0,0,1,3.39.51,10.16,10.16,0,0,1,3,1.68c1.8,1.42,3.24,3.24,5.17,4.38a9.86,9.86,0,0,0,6.43,1.19,8.88,8.88,0,0,0,3.13-1,13.16,13.16,0,0,0,2.64-2c1.61-1.54,3.21-3.33,5.43-4.23a9.87,9.87,0,0,1,3.43-.72,10.9,10.9,0,0,1,3.49.38,9.8,9.8,0,0,1,3.15,1.58,27.22,27.22,0,0,1,2.6,2.28,11.21,11.21,0,0,0,5.51,3.38,10.55,10.55,0,0,0,3.25.17,8.64,8.64,0,0,0,3.07-.85c1.94-.94,3.39-2.68,5.11-4.24a12,12,0,0,1,2.93-2,9.93,9.93,0,0,1,3.49-.91,13.32,13.32,0,0,1,1.77,0,10.76,10.76,0,0,1,1.81.26A9.68,9.68,0,0,1,82,533c2,1.37,3.43,3.21,5.17,4.44a9.55,9.55,0,0,0,9,1,10.22,10.22,0,0,0,2.63-1.73c1.62-1.41,3.13-3.31,5.35-4.49a10,10,0,0,1,3.54-1.1,12.71,12.71,0,0,1,3.67.1,10,10,0,0,1,3.47,1.36,17,17,0,0,1,2.79,2.26c1.65,1.61,3.18,3.09,5.13,3.69a9.26,9.26,0,0,0,3,.42,9.52,9.52,0,0,0,1.56-.14,7.78,7.78,0,0,0,1.47-.39c1.92-.68,3.41-2.22,5.07-3.84a16,16,0,0,1,2.85-2.25,10,10,0,0,1,3.54-1.27,12.35,12.35,0,0,1,1.85-.15l.89,0c.32,0,.65,0,1,.1a10.06,10.06,0,0,1,3.57,1.21c2.22,1.26,3.71,3.16,5.34,4.49a9,9,0,0,0,11.25.3c1.66-1.25,3.08-3.13,5.2-4.52a10.24,10.24,0,0,1,3.51-1.45,12.65,12.65,0,0,1,3.72-.18,10.28,10.28,0,0,1,3.66,1,13.72,13.72,0,0,1,3,2.16c1.74,1.61,3.18,3.22,5,4a8.41,8.41,0,0,0,2.9.67c.25,0,.54,0,.75,0s.6,0,.81,0a8.81,8.81,0,0,0,1.46-.25,11.38,11.38,0,0,0,5.1-3.41,22.9,22.9,0,0,1,2.7-2.36,10.4,10.4,0,0,1,3.46-1.63,12.47,12.47,0,0,1,3.72-.34,10.73,10.73,0,0,1,3.75.89c2.41,1.06,4.06,3,5.64,4.42a8.66,8.66,0,0,0,5.31,2.57,8.58,8.58,0,0,0,5.7-1.28c1.69-1.08,3.07-2.89,5.06-4.42a10.7,10.7,0,0,1,3.39-1.79,11.56,11.56,0,0,1,3.79-.49h.43l.5,0c.34,0,.65.08,1,.13a10.2,10.2,0,0,1,1.87.53,11.53,11.53,0,0,1,3.26,2c1.88,1.58,3.28,3.31,5,4.24a7.7,7.7,0,0,0,2.74.92,10.21,10.21,0,0,0,1.47.09c.27,0,.6,0,.82,0s.46,0,.71-.09a9.28,9.28,0,0,0,5.13-2.91c.8-.75,1.61-1.6,2.57-2.39a10.85,10.85,0,0,1,7.12-2.61c.4,0,.6,0,.91,0s.68.05,1,.1a11,11,0,0,1,1.91.44,11.2,11.2,0,0,1,3.39,1.86c1,.77,1.82,1.62,2.63,2.38a9.7,9.7,0,0,0,5.07,3,10.48,10.48,0,0,0,3,.08,7.64,7.64,0,0,0,2.72-.84c1.71-.88,3.1-2.56,4.94-4.18a12.44,12.44,0,0,1,3.23-2.08,11.13,11.13,0,0,1,3.82-.84l.48,0h.49c.27,0,.56,0,.93.05a11.26,11.26,0,0,1,2,.35,11,11,0,0,1,3.52,1.72c2.06,1.53,3.47,3.35,5.11,4.43A8.21,8.21,0,0,0,325,538.3a7.79,7.79,0,0,0,2.71-.7,10,10,0,0,0,2.42-1.68c1.56-1.38,3.17-3.35,5.61-4.53a10.76,10.76,0,0,1,3.82-1c.33,0,.64,0,1-.05h.92a11.87,11.87,0,0,1,2,.27,10.66,10.66,0,0,1,3.64,1.57,20.72,20.72,0,0,1,2.82,2.37c1.64,1.62,3.1,2.92,4.91,3.4a9,9,0,0,0,2.87.31,7.89,7.89,0,0,0,2.75-.57c1.73-.68,3.12-2.17,4.86-3.83a15,15,0,0,1,3-2.29,10.83,10.83,0,0,1,3.8-1.24,14,14,0,0,1,2-.1,12.31,12.31,0,0,1,1.93.18,10.6,10.6,0,0,1,3.75,1.41c2.29,1.4,3.77,3.32,5.35,4.54a7.82,7.82,0,0,0,5.24,1.82l-1.71,1.71-.08-33.1.06-33.1.15-66.2.31-132.4.31-132.4.86-132.4h.2l.09,529.61v.19h-.19a10.66,10.66,0,0,1-3.41-.54,10.23,10.23,0,0,1-3-1.71c-1.79-1.44-3.22-3.26-5.14-4.42a9.9,9.9,0,0,0-6.44-1.24,9,9,0,0,0-3.16,1,13.2,13.2,0,0,0-2.68,2c-1.63,1.53-3.23,3.3-5.42,4.16a9.72,9.72,0,0,1-3.38.69,10.77,10.77,0,0,1-3.43-.39,9.59,9.59,0,0,1-3.08-1.56,26.71,26.71,0,0,1-2.56-2.28,19,19,0,0,0-2.57-2.18,8.87,8.87,0,0,0-3-1.32,10.3,10.3,0,0,0-6.54.65c-2,1-3.53,2.73-5.22,4.25a11.68,11.68,0,0,1-2.84,1.95,9.47,9.47,0,0,1-3.35.85,9.94,9.94,0,0,1-6.58-1.66c-1.91-1.31-3.32-3.15-5.14-4.48a9.27,9.27,0,0,0-3-1.47,10.83,10.83,0,0,0-3.32-.34,9.47,9.47,0,0,0-3.25.71,10.81,10.81,0,0,0-2.81,1.81c-1.7,1.46-3.18,3.29-5.25,4.37a10.53,10.53,0,0,1-6.74.9,9.2,9.2,0,0,1-3.21-1.26,16.6,16.6,0,0,1-2.66-2.17c-1.61-1.58-3.27-3.21-5.42-3.9a10.57,10.57,0,0,0-6.59.08c-2.13.75-3.74,2.42-5.37,4a15.25,15.25,0,0,1-2.7,2.13,9.14,9.14,0,0,1-3.24,1.17,10.33,10.33,0,0,1-6.71-1.07c-2-1.14-3.49-3-5.21-4.41a10.06,10.06,0,0,0-2.85-1.74,10.17,10.17,0,0,0-9.54,1.35c-1.79,1.36-3.21,3.2-5.15,4.46a10,10,0,0,1-6.62,1.48,9.35,9.35,0,0,1-3.31-.94,12.69,12.69,0,0,1-2.79-2c-1.67-1.54-3.19-3.29-5.27-4.19a10.42,10.42,0,0,0-6.58-.49,9,9,0,0,0-3,1.42A21.72,21.72,0,0,0,200.2,536a22.47,22.47,0,0,1-2.58,2.25,9.41,9.41,0,0,1-3.11,1.47,10.73,10.73,0,0,1-6.77-.49c-2.15-.93-3.7-2.72-5.35-4.23a12.46,12.46,0,0,0-2.72-2,9,9,0,0,0-3.2-.92A9.73,9.73,0,0,0,170,533.5c-1.9,1.22-3.31,3.06-5.13,4.45a9.7,9.7,0,0,1-6.44,2.05,9.83,9.83,0,0,1-3.38-.63,10.29,10.29,0,0,1-2.94-1.78c-1.76-1.46-3.19-3.28-5.16-4.39a10,10,0,0,0-6.51-1.06,8.87,8.87,0,0,0-3.14,1.12,14.88,14.88,0,0,0-2.65,2.08c-1.62,1.55-3.26,3.28-5.47,4.06a10.1,10.1,0,0,1-3.38.59,10.35,10.35,0,0,1-3.4-.49c-2.23-.7-3.94-2.38-5.54-4a16.56,16.56,0,0,0-2.61-2.14,9,9,0,0,0-3.1-1.24,10.26,10.26,0,0,0-6.55.86c-2,1-3.48,2.84-5.2,4.33a11.13,11.13,0,0,1-2.88,1.86,9.72,9.72,0,0,1-3.35.74,11.22,11.22,0,0,1-3.41-.34,9.57,9.57,0,0,1-3.08-1.51c-1.86-1.35-3.27-3.19-5.13-4.47A9.63,9.63,0,0,0,75.17,532a9.2,9.2,0,0,0-3.24.82,11.3,11.3,0,0,0-2.78,1.89c-1.68,1.49-3.18,3.3-5.29,4.3a9.26,9.26,0,0,1-3.31.89,11.17,11.17,0,0,1-3.42-.2A9.17,9.17,0,0,1,54,538.37a19.19,19.19,0,0,1-2.61-2.21c-1.6-1.58-3.31-3.18-5.51-3.78a10.41,10.41,0,0,0-3.33-.38,9.41,9.41,0,0,0-3.28.67c-2.12.83-3.69,2.55-5.33,4.11a13.53,13.53,0,0,1-2.73,2.06,9.25,9.25,0,0,1-3.26,1.05,10.19,10.19,0,0,1-6.63-1.28c-2-1.2-3.41-3-5.17-4.44a9.93,9.93,0,0,0-2.92-1.66A10.35,10.35,0,0,0,9.88,532Z"/><g class="cls-28"><path class="cls-29" d="M357.22,10.26c-8.27,0-8.27-8-16.55-8s-8.27,8-16.54,8-8.27-8-16.54-8-8.27,8-16.54,8-8.27-8-16.54-8-8.27,8-16.54,8-8.27-8-16.54-8-8.27,8-16.54,8-8.27-8-16.54-8-8.27,8-16.54,8-8.27-8-16.54-8-8.27,8-16.54,8-8.27-8-16.54-8-8.27,8-16.54,8-8.27-8-16.54-8-8.27,8-16.54,8-8.27-8-16.54-8-8.27,8-16.54,8-8.27-8-16.54-8-8.27,8-16.54,8-8.27-8-16.54-8V531.87c8.27,0,8.27,8,16.54,8s8.27-8,16.54-8,8.27,8,16.54,8,8.27-8,16.54-8,8.27,8,16.54,8,8.27-8,16.54-8,8.27,8,16.54,8,8.27-8,16.54-8,8.27,8,16.54,8,8.27-8,16.54-8,8.27,8,16.54,8,8.27-8,16.54-8,8.27,8,16.54,8,8.27-8,16.54-8,8.27,8,16.54,8,8.27-8,16.54-8,8.27,8,16.54,8,8.27-8,16.54-8,8.27,8,16.54,8,8.27-8,16.54-8,8.27,8,16.55,8,8.27-8,16.55-8,8.27,8,16.55,8V10.26c-8.27,0-8.27-8-16.55-8S365.5,10.26,357.22,10.26Z"/></g><g class="cls-28"><path class="cls-30" d="M357.22,10.26c-8.27,0-8.27-8-16.55-8s-8.27,8-16.54,8-8.27-8-16.54-8-8.27,8-16.54,8-8.27-8-16.54-8-8.27,8-16.54,8-8.27-8-16.54-8-8.27,8-16.54,8-8.27-8-16.54-8-8.27,8-16.54,8-8.27-8-16.54-8-8.27,8-16.54,8-8.27-8-16.54-8-8.27,8-16.54,8-8.27-8-16.54-8-8.27,8-16.54,8-8.27-8-16.54-8-8.27,8-16.54,8-8.27-8-16.54-8-8.27,8-16.54,8-8.27-8-16.54-8V531.87c8.27,0,8.27,8,16.54,8s8.27-8,16.54-8,8.27,8,16.54,8,8.27-8,16.54-8,8.27,8,16.54,8,8.27-8,16.54-8,8.27,8,16.54,8,8.27-8,16.54-8,8.27,8,16.54,8,8.27-8,16.54-8,8.27,8,16.54,8,8.27-8,16.54-8,8.27,8,16.54,8,8.27-8,16.54-8,8.27,8,16.54,8,8.27-8,16.54-8,8.27,8,16.54,8,8.27-8,16.54-8,8.27,8,16.54,8,8.27-8,16.54-8,8.27,8,16.55,8,8.27-8,16.55-8,8.27,8,16.55,8V10.26c-8.27,0-8.27-8-16.55-8S365.5,10.26,357.22,10.26Z"/></g><g class="cls-28"><path class="cls-31" d="M357.22,10.26c-8.27,0-8.27-8-16.55-8s-8.27,8-16.54,8-8.27-8-16.54-8-8.27,8-16.54,8-8.27-8-16.54-8-8.27,8-16.54,8-8.27-8-16.54-8-8.27,8-16.54,8-8.27-8-16.54-8-8.27,8-16.54,8-8.27-8-16.54-8-8.27,8-16.54,8-8.27-8-16.54-8-8.27,8-16.54,8-8.27-8-16.54-8-8.27,8-16.54,8-8.27-8-16.54-8-8.27,8-16.54,8-8.27-8-16.54-8-8.27,8-16.54,8-8.27-8-16.54-8V531.87c8.27,0,8.27,8,16.54,8s8.27-8,16.54-8,8.27,8,16.54,8,8.27-8,16.54-8,8.27,8,16.54,8,8.27-8,16.54-8,8.27,8,16.54,8,8.27-8,16.54-8,8.27,8,16.54,8,8.27-8,16.54-8,8.27,8,16.54,8,8.27-8,16.54-8,8.27,8,16.54,8,8.27-8,16.54-8,8.27,8,16.54,8,8.27-8,16.54-8,8.27,8,16.54,8,8.27-8,16.54-8,8.27,8,16.54,8,8.27-8,16.54-8,8.27,8,16.55,8,8.27-8,16.55-8,8.27,8,16.55,8V10.26c-8.27,0-8.27-8-16.55-8S365.5,10.26,357.22,10.26Z"/></g></g></g></g></svg>