<svg xmlns="http://www.w3.org/2000/svg" viewBox="0 0 350.59 3.02"><defs><style>.cls-1{fill:#4d4d4d;}</style></defs><title>Asset 3</title><g id="Layer_2" data-name="Layer 2"><g id="Layer_1-2" data-name="Layer 1"><path class="cls-1" d="M0,1.51A1.42,1.42,0,0,1,1.44,0,1.4,1.4,0,0,1,2.86,1.51,1.41,1.41,0,0,1,1.42,3,1.41,1.41,0,0,1,0,1.51Z"/><path class="cls-1" d="M5,1.51A1.42,1.42,0,0,1,6.41,0,1.4,1.4,0,0,1,7.82,1.51,1.43,1.43,0,1,1,5,1.51Z"/><path class="cls-1" d="M9.94,1.51A1.42,1.42,0,0,1,11.38,0a1.4,1.4,0,0,1,1.42,1.51,1.43,1.43,0,1,1-2.86,0Z"/><path class="cls-1" d="M14.9,1.51A1.42,1.42,0,0,1,16.34,0a1.4,1.4,0,0,1,1.42,1.51,1.43,1.43,0,1,1-2.86,0Z"/><path class="cls-1" d="M19.87,1.51A1.42,1.42,0,0,1,21.31,0a1.4,1.4,0,0,1,1.42,1.51,1.43,1.43,0,1,1-2.86,0Z"/><path class="cls-1" d="M24.84,1.51A1.42,1.42,0,0,1,26.28,0,1.4,1.4,0,0,1,27.7,1.51a1.43,1.43,0,1,1-2.86,0Z"/><path class="cls-1" d="M29.81,1.51A1.42,1.42,0,0,1,31.25,0a1.4,1.4,0,0,1,1.42,1.51,1.43,1.43,0,1,1-2.86,0Z"/><path class="cls-1" d="M34.77,1.51A1.42,1.42,0,0,1,36.21,0a1.4,1.4,0,0,1,1.42,1.51,1.43,1.43,0,1,1-2.86,0Z"/><path class="cls-1" d="M39.74,1.51A1.42,1.42,0,0,1,41.18,0,1.4,1.4,0,0,1,42.6,1.51a1.43,1.43,0,1,1-2.86,0Z"/><path class="cls-1" d="M44.71,1.51A1.42,1.42,0,0,1,46.15,0a1.4,1.4,0,0,1,1.42,1.51,1.43,1.43,0,1,1-2.86,0Z"/><path class="cls-1" d="M49.68,1.51A1.42,1.42,0,0,1,51.12,0a1.4,1.4,0,0,1,1.42,1.51,1.43,1.43,0,1,1-2.86,0Z"/><path class="cls-1" d="M54.64,1.51A1.42,1.42,0,0,1,56.08,0,1.4,1.4,0,0,1,57.5,1.51a1.43,1.43,0,1,1-2.86,0Z"/><path class="cls-1" d="M59.61,1.51A1.42,1.42,0,0,1,61.05,0a1.4,1.4,0,0,1,1.42,1.51,1.43,1.43,0,1,1-2.86,0Z"/><path class="cls-1" d="M64.58,1.51A1.42,1.42,0,0,1,66,0a1.4,1.4,0,0,1,1.42,1.51,1.43,1.43,0,1,1-2.86,0Z"/><path class="cls-1" d="M69.55,1.51A1.42,1.42,0,0,1,71,0,1.4,1.4,0,0,1,72.4,1.51a1.43,1.43,0,1,1-2.86,0Z"/><path class="cls-1" d="M74.51,1.51A1.42,1.42,0,0,1,76,0a1.4,1.4,0,0,1,1.42,1.51,1.43,1.43,0,1,1-2.86,0Z"/><path class="cls-1" d="M79.48,1.51A1.42,1.42,0,0,1,80.92,0a1.4,1.4,0,0,1,1.42,1.51,1.43,1.43,0,1,1-2.86,0Z"/><path class="cls-1" d="M84.45,1.51A1.42,1.42,0,0,1,85.89,0a1.4,1.4,0,0,1,1.42,1.51,1.43,1.43,0,1,1-2.86,0Z"/><path class="cls-1" d="M89.42,1.51A1.42,1.42,0,0,1,90.86,0a1.4,1.4,0,0,1,1.42,1.51,1.43,1.43,0,1,1-2.86,0Z"/><path class="cls-1" d="M94.39,1.51A1.42,1.42,0,0,1,95.83,0a1.4,1.4,0,0,1,1.42,1.51,1.43,1.43,0,1,1-2.86,0Z"/><path class="cls-1" d="M99.35,1.51A1.42,1.42,0,0,1,100.79,0a1.4,1.4,0,0,1,1.42,1.51,1.43,1.43,0,1,1-2.86,0Z"/><path class="cls-1" d="M104.32,1.51A1.42,1.42,0,0,1,105.76,0a1.4,1.4,0,0,1,1.42,1.51,1.43,1.43,0,1,1-2.86,0Z"/><path class="cls-1" d="M109.29,1.51A1.42,1.42,0,0,1,110.73,0a1.4,1.4,0,0,1,1.42,1.51,1.43,1.43,0,1,1-2.86,0Z"/><path class="cls-1" d="M114.26,1.51A1.42,1.42,0,0,1,115.7,0a1.4,1.4,0,0,1,1.42,1.51,1.43,1.43,0,1,1-2.86,0Z"/><path class="cls-1" d="M119.22,1.51A1.42,1.42,0,0,1,120.66,0a1.4,1.4,0,0,1,1.42,1.51,1.43,1.43,0,1,1-2.86,0Z"/><path class="cls-1" d="M124.19,1.51A1.42,1.42,0,0,1,125.63,0,1.4,1.4,0,0,1,127,1.51a1.43,1.43,0,1,1-2.86,0Z"/><path class="cls-1" d="M129.16,1.51A1.42,1.42,0,0,1,130.6,0,1.4,1.4,0,0,1,132,1.51a1.43,1.43,0,1,1-2.86,0Z"/><path class="cls-1" d="M134.13,1.51A1.42,1.42,0,0,1,135.57,0,1.4,1.4,0,0,1,137,1.51a1.43,1.43,0,1,1-2.86,0Z"/><path class="cls-1" d="M139.09,1.51A1.42,1.42,0,0,1,140.53,0,1.4,1.4,0,0,1,142,1.51a1.43,1.43,0,1,1-2.86,0Z"/><path class="cls-1" d="M144.06,1.51A1.42,1.42,0,0,1,145.5,0a1.4,1.4,0,0,1,1.42,1.51,1.43,1.43,0,1,1-2.86,0Z"/><path class="cls-1" d="M149,1.51A1.42,1.42,0,0,1,150.47,0a1.4,1.4,0,0,1,1.42,1.51,1.43,1.43,0,1,1-2.86,0Z"/><path class="cls-1" d="M154,1.51A1.42,1.42,0,0,1,155.44,0a1.4,1.4,0,0,1,1.42,1.51,1.43,1.43,0,1,1-2.86,0Z"/><path class="cls-1" d="M159,1.51A1.42,1.42,0,0,1,160.41,0a1.4,1.4,0,0,1,1.42,1.51,1.43,1.43,0,1,1-2.86,0Z"/><path class="cls-1" d="M163.93,1.51A1.42,1.42,0,0,1,165.37,0a1.4,1.4,0,0,1,1.42,1.51,1.43,1.43,0,1,1-2.86,0Z"/><path class="cls-1" d="M168.9,1.51A1.42,1.42,0,0,1,170.34,0a1.4,1.4,0,0,1,1.42,1.51,1.43,1.43,0,1,1-2.86,0Z"/><path class="cls-1" d="M173.87,1.51A1.42,1.42,0,0,1,175.31,0a1.4,1.4,0,0,1,1.42,1.51,1.43,1.43,0,1,1-2.86,0Z"/><path class="cls-1" d="M178.84,1.51A1.42,1.42,0,0,1,180.28,0a1.4,1.4,0,0,1,1.42,1.51,1.43,1.43,0,1,1-2.86,0Z"/><path class="cls-1" d="M183.8,1.51A1.42,1.42,0,0,1,185.24,0a1.4,1.4,0,0,1,1.42,1.51,1.43,1.43,0,1,1-2.86,0Z"/><path class="cls-1" d="M188.77,1.51A1.42,1.42,0,0,1,190.21,0a1.4,1.4,0,0,1,1.42,1.51,1.43,1.43,0,1,1-2.86,0Z"/><path class="cls-1" d="M193.74,1.51A1.42,1.42,0,0,1,195.18,0a1.4,1.4,0,0,1,1.42,1.51,1.43,1.43,0,1,1-2.86,0Z"/><path class="cls-1" d="M198.71,1.51A1.42,1.42,0,0,1,200.15,0a1.4,1.4,0,0,1,1.42,1.51,1.43,1.43,0,1,1-2.86,0Z"/><path class="cls-1" d="M203.67,1.51A1.42,1.42,0,0,1,205.11,0a1.4,1.4,0,0,1,1.42,1.51,1.43,1.43,0,1,1-2.86,0Z"/><path class="cls-1" d="M208.64,1.51A1.42,1.42,0,0,1,210.08,0a1.4,1.4,0,0,1,1.42,1.51,1.43,1.43,0,1,1-2.86,0Z"/><path class="cls-1" d="M213.61,1.51A1.42,1.42,0,0,1,215,0a1.4,1.4,0,0,1,1.42,1.51,1.43,1.43,0,1,1-2.86,0Z"/><path class="cls-1" d="M218.58,1.51A1.42,1.42,0,0,1,220,0a1.4,1.4,0,0,1,1.42,1.51,1.43,1.43,0,1,1-2.86,0Z"/><path class="cls-1" d="M223.54,1.51A1.42,1.42,0,0,1,225,0a1.4,1.4,0,0,1,1.42,1.51,1.43,1.43,0,1,1-2.86,0Z"/><path class="cls-1" d="M228.51,1.51A1.42,1.42,0,0,1,230,0a1.4,1.4,0,0,1,1.42,1.51,1.43,1.43,0,1,1-2.86,0Z"/><path class="cls-1" d="M233.48,1.51A1.42,1.42,0,0,1,234.92,0a1.4,1.4,0,0,1,1.42,1.51,1.43,1.43,0,1,1-2.86,0Z"/><path class="cls-1" d="M238.45,1.51A1.42,1.42,0,0,1,239.89,0a1.4,1.4,0,0,1,1.42,1.51,1.43,1.43,0,1,1-2.86,0Z"/><path class="cls-1" d="M243.41,1.51A1.42,1.42,0,0,1,244.86,0a1.4,1.4,0,0,1,1.42,1.51,1.43,1.43,0,1,1-2.86,0Z"/><path class="cls-1" d="M248.38,1.51A1.42,1.42,0,0,1,249.82,0a1.4,1.4,0,0,1,1.42,1.51,1.43,1.43,0,1,1-2.86,0Z"/><path class="cls-1" d="M253.35,1.51A1.42,1.42,0,0,1,254.79,0a1.4,1.4,0,0,1,1.42,1.51,1.43,1.43,0,1,1-2.86,0Z"/><path class="cls-1" d="M258.32,1.51A1.42,1.42,0,0,1,259.76,0a1.4,1.4,0,0,1,1.42,1.51,1.43,1.43,0,1,1-2.86,0Z"/><path class="cls-1" d="M263.29,1.51A1.42,1.42,0,0,1,264.73,0a1.4,1.4,0,0,1,1.42,1.51,1.43,1.43,0,1,1-2.86,0Z"/><path class="cls-1" d="M268.25,1.51A1.42,1.42,0,0,1,269.69,0a1.4,1.4,0,0,1,1.42,1.51,1.43,1.43,0,1,1-2.86,0Z"/><path class="cls-1" d="M273.22,1.51A1.42,1.42,0,0,1,274.66,0a1.4,1.4,0,0,1,1.42,1.51,1.43,1.43,0,1,1-2.86,0Z"/><path class="cls-1" d="M278.19,1.51A1.42,1.42,0,0,1,279.63,0,1.4,1.4,0,0,1,281,1.51a1.43,1.43,0,1,1-2.86,0Z"/><path class="cls-1" d="M283.16,1.51A1.42,1.42,0,0,1,284.6,0,1.4,1.4,0,0,1,286,1.51a1.43,1.43,0,1,1-2.86,0Z"/><path class="cls-1" d="M288.12,1.51A1.42,1.42,0,0,1,289.56,0,1.4,1.4,0,0,1,291,1.51a1.43,1.43,0,1,1-2.86,0Z"/><path class="cls-1" d="M293.09,1.51A1.42,1.42,0,0,1,294.53,0a1.4,1.4,0,0,1,1.42,1.51,1.43,1.43,0,1,1-2.86,0Z"/><path class="cls-1" d="M298.06,1.51A1.42,1.42,0,0,1,299.5,0a1.4,1.4,0,0,1,1.42,1.51,1.43,1.43,0,1,1-2.86,0Z"/><path class="cls-1" d="M303,1.51A1.42,1.42,0,0,1,304.47,0a1.4,1.4,0,0,1,1.42,1.51,1.43,1.43,0,1,1-2.86,0Z"/><path class="cls-1" d="M308,1.51A1.42,1.42,0,0,1,309.43,0a1.4,1.4,0,0,1,1.42,1.51,1.43,1.43,0,1,1-2.86,0Z"/><path class="cls-1" d="M313,1.51A1.42,1.42,0,0,1,314.4,0a1.4,1.4,0,0,1,1.42,1.51,1.43,1.43,0,1,1-2.86,0Z"/><path class="cls-1" d="M317.93,1.51A1.42,1.42,0,0,1,319.37,0a1.4,1.4,0,0,1,1.42,1.51,1.43,1.43,0,1,1-2.86,0Z"/><path class="cls-1" d="M322.9,1.51A1.42,1.42,0,0,1,324.34,0a1.4,1.4,0,0,1,1.42,1.51,1.43,1.43,0,1,1-2.86,0Z"/><path class="cls-1" d="M327.87,1.51A1.42,1.42,0,0,1,329.31,0a1.4,1.4,0,0,1,1.42,1.51,1.43,1.43,0,1,1-2.86,0Z"/><path class="cls-1" d="M332.83,1.51A1.42,1.42,0,0,1,334.27,0a1.4,1.4,0,0,1,1.42,1.51,1.43,1.43,0,1,1-2.86,0Z"/><path class="cls-1" d="M337.8,1.51A1.42,1.42,0,0,1,339.24,0a1.4,1.4,0,0,1,1.42,1.51,1.43,1.43,0,1,1-2.86,0Z"/><path class="cls-1" d="M342.77,1.51A1.42,1.42,0,0,1,344.21,0a1.4,1.4,0,0,1,1.42,1.51,1.43,1.43,0,1,1-2.86,0Z"/><path class="cls-1" d="M347.74,1.51A1.42,1.42,0,0,1,349.18,0a1.4,1.4,0,0,1,1.42,1.51,1.43,1.43,0,1,1-2.86,0Z"/></g></g></svg>