<?xml version="1.0" encoding="utf-8"?>
<!-- Generator: Adobe Illustrator 17.0.2, SVG Export Plug-In . SVG Version: 6.00 Build 0)  -->
<!DOCTYPE svg PUBLIC "-//W3C//DTD SVG 1.1//EN" "http://www.w3.org/Graphics/SVG/1.1/DTD/svg11.dtd">
<svg version="1.1" id="Layer_1" xmlns="http://www.w3.org/2000/svg" xmlns:xlink="http://www.w3.org/1999/xlink" x="0px" y="0px"
	 width="56.693px" height="56.693px" viewBox="0 0 56.693 56.693" enable-background="new 0 0 56.693 56.693" xml:space="preserve">
<g fill="#ffffff">
	<path d="M53.402,23.558c-0.316-0.984-1.225-1.661-2.262-1.685l-15.167-0.306L30.997,7.405c-0.341-0.973-1.262-1.626-2.291-1.626
		c-1.032,0-1.953,0.654-2.292,1.626l-4.976,14.163l-15.17,0.306c-1.036,0.023-1.944,0.7-2.26,1.684
		c-0.318,0.984,0.025,2.064,0.854,2.689L16.93,35.3l-4.383,14.331c-0.303,0.987,0.053,2.061,0.888,2.674
		c0.427,0.312,0.932,0.469,1.437,0.469c0.482,0,0.963-0.143,1.376-0.43l13.025-8.968c0.455-0.312,0.57-0.936,0.257-1.391
		c-0.313-0.454-0.938-0.571-1.391-0.256l-13.028,8.969c-0.149,0.104-0.349,0.1-0.495-0.007c-0.147-0.108-0.211-0.299-0.157-0.475
		l4.589-15.004c0.124-0.402-0.019-0.839-0.356-1.092L6.064,24.648c-0.147-0.111-0.209-0.303-0.152-0.479
		c0.056-0.173,0.217-0.292,0.398-0.296l15.861-0.32c0.417-0.009,0.785-0.275,0.923-0.669L28.3,8.066
		c0.12-0.343,0.688-0.344,0.81,0.001l5.207,14.817c0.138,0.394,0.506,0.66,0.923,0.669l15.857,0.32
		c0.184,0.004,0.345,0.123,0.401,0.299c0.056,0.173-0.005,0.364-0.152,0.475l-7.66,5.746c-0.442,0.331-0.531,0.958-0.2,1.399
		c0.331,0.443,0.958,0.532,1.4,0.2l7.661-5.747C53.378,25.622,53.721,24.541,53.402,23.558z"/>
	<path d="M49.425,42.688h-7.359v-7.359c0-0.553-0.448-1-1-1s-1,0.447-1,1v7.359h-7.358c-0.552,0-1,0.447-1,1s0.448,1,1,1h7.358
		v7.358c0,0.553,0.448,1,1,1s1-0.447,1-1v-7.358h7.359c0.552,0,1-0.447,1-1S49.978,42.688,49.425,42.688z"/>
</g>
</svg>
