<?xml version="1.0" encoding="utf-8"?>
<!-- Generator: Adobe Illustrator 17.0.2, SVG Export Plug-In . SVG Version: 6.00 Build 0)  -->
<!DOCTYPE svg PUBLIC "-//W3C//DTD SVG 1.1//EN" "http://www.w3.org/Graphics/SVG/1.1/DTD/svg11.dtd">
<svg version="1.1" id="Layer_1" xmlns="http://www.w3.org/2000/svg" xmlns:xlink="http://www.w3.org/1999/xlink" x="0px" y="0px"
	 width="56.693px" height="56.693px" viewBox="0 0 56.693 56.693" enable-background="new 0 0 56.693 56.693" xml:space="preserve">
<g fill="#0093EE">
	<path d="M28.347,4.448c-13.497,0-24.478,10.979-24.478,24.476c0,13.499,10.98,24.481,24.478,24.481
		c13.5,0,24.484-10.982,24.484-24.481C52.831,15.428,41.847,4.448,28.347,4.448z M28.347,51.405
		c-12.394,0-22.478-10.085-22.478-22.481c0-12.394,10.083-22.476,22.478-22.476c12.398,0,22.484,10.082,22.484,22.476
		C50.831,41.32,40.745,51.405,28.347,51.405z"/>
	<path d="M42.239,28.176H29.625V15.562c0-0.553-0.448-1-1-1s-1,0.447-1,1v12.614H15.011c-0.552,0-1,0.447-1,1s0.448,1,1,1h12.614
		V42.79c0,0.553,0.448,1,1,1s1-0.447,1-1V30.176h12.614c0.552,0,1-0.447,1-1S42.791,28.176,42.239,28.176z"/>
</g>
</svg>
