<svg xmlns="http://www.w3.org/2000/svg" xmlns:xlink="http://www.w3.org/1999/xlink" version="1.1" width="56.693" height="56.693" enable-background="new 0 0 56.693 56.693" xml:space="preserve"><rect id="backgroundrect" width="100%" height="100%" x="0" y="0" fill="none" stroke="none"/>

<g class="currentLayer"><title>Layer 1</title><g id="svg_1" class="selected" fill="#ffffff" fill-opacity="1">
	<path d="M28.252,4.932C14.813,4.932,3.88,15.865,3.88,29.303c0,13.438,10.933,24.37,24.371,24.37s24.371-10.933,24.371-24.37   C52.623,15.865,41.69,4.932,28.252,4.932z M28.252,51.673c-12.336,0-22.371-10.035-22.371-22.37   c0-12.336,10.035-22.371,22.371-22.371s22.371,10.035,22.371,22.371C50.623,41.638,40.587,51.673,28.252,51.673z" id="svg_2" fill="#ffffff" fill-opacity="1"/>
	<path d="M28.479,14.573c-3.852,0-6.887,1.477-9.555,4.648c-0.186,0.231-0.288,0.521-0.288,0.816c0,0.629,0.475,1.085,1.128,1.085   c0.365,0,0.708-0.17,0.964-0.477c2.247-2.568,4.755-3.816,7.666-3.816c4.002,0,6.906,2.636,6.906,6.269v0.085   c0,3.83-2.951,6.301-7.895,6.61c-0.348,0.022-0.65,0.164-0.854,0.399c-0.193,0.223-0.286,0.515-0.263,0.825l0.468,5.483   c0.046,0.549,0.372,0.903,0.83,0.903h0.085c0.459,0,0.784-0.354,0.829-0.905l0.331-4.596c5.652-0.723,9.022-4.008,9.022-8.806   v-0.085C37.854,18.123,33.911,14.573,28.479,14.573z" id="svg_3" fill="#ffffff" fill-opacity="1"/>
	<path d="M27.628,40.93c-0.885,0-1.553,0.668-1.553,1.553v1.148c0,0.885,0.668,1.553,1.553,1.553c0.886,0,1.554-0.668,1.554-1.553   v-1.148C29.182,41.598,28.514,40.93,27.628,40.93z" id="svg_4" fill="#ffffff" fill-opacity="1"/>
</g></g></svg>