<?xml version="1.0" encoding="UTF-8"?>
<svg width="50px" height="36px" viewBox="0 0 50 36" version="1.1" xmlns="http://www.w3.org/2000/svg" xmlns:xlink="http://www.w3.org/1999/xlink">
    <!-- Generator: Sketch 41 (35326) - http://www.bohemiancoding.com/sketch -->
    <title>thin-402_arrow_left_navigate_previous</title>
    <desc>Created with Sketch.</desc>
    <defs></defs>
    <g id="Page-1" stroke="none" stroke-width="1" fill="none" fill-rule="evenodd">
        <g id="thin-402_arrow_left_navigate_previous" fill="#FFFFFF">
            <path d="M43.926,12.058 L25.154,10.08 L25.151,3.559 C25.151,3.3 25.116,3.035 25.058,2.815 C25.042,2.741 25.021,2.669 24.983,2.557 C24.918,2.367 24.837,2.181 24.728,1.985 L24.651,1.85 C24.53,1.661 24.405,1.498 24.27,1.356 L24.098,1.196 C23.887,1.007 23.659,0.847 23.417,0.724 C22.369,0.185 21.078,0.269 20.059,1.014 L2.079,15.578 C1.258,16.178 0.768,17.14 0.768,18.154 C0.768,19.175 1.26,20.138 2.039,20.699 L20.1,35.332 C20.63,35.716 21.271,35.919 21.954,35.919 L22.111,35.916 C22.294,35.907 22.514,35.89 22.685,35.841 C22.947,35.791 23.197,35.704 23.409,35.593 C24.47,35.062 25.155,33.947 25.155,32.753 L25.152,26.232 L43.927,24.253 C47.263,24.224 49.968,21.498 49.968,18.153 C49.967,14.811 47.262,12.087 43.926,12.058 Z M43.872,22.253 L23.15,24.431 L23.154,32.753 C23.154,33.196 22.903,33.608 22.496,33.812 C22.438,33.842 22.378,33.863 22.235,33.893 C22.178,33.909 22.089,33.914 22.019,33.917 L21.954,33.918 C21.691,33.918 21.463,33.849 21.316,33.744 L3.254,19.111 C2.95,18.891 2.768,18.534 2.768,18.154 C2.768,17.776 2.951,17.417 3.298,17.163 L21.277,2.599 C21.478,2.452 21.716,2.374 21.966,2.374 C22.152,2.374 22.337,2.419 22.502,2.503 C22.595,2.551 22.686,2.615 22.827,2.742 C22.87,2.79 22.92,2.858 22.993,2.981 C23.032,3.051 23.064,3.127 23.111,3.272 C23.137,3.375 23.151,3.468 23.151,3.558 L23.156,11.88 L43.767,14.052 L43.872,14.058 C46.13,14.058 47.967,15.895 47.967,18.154 C47.967,20.415 46.13,22.253 43.872,22.253 Z" id="Shape"></path>
        </g>
    </g>
</svg>